M48
; DRILL file {KiCad (5.1.10)-1} date 12/10/21 13:37:04
; FORMAT={-:-/ absolute / metric / decimal}
; #@! TF.CreationDate,2021-12-10T13:37:04+01:00
; #@! TF.GenerationSoftware,Kicad,Pcbnew,(5.1.10)-1
; #@! TF.FileFunction,Plated,1,2,PTH
FMAT,2
METRIC
T1C0.400
T2C0.750
T3C0.800
T4C1.000
T5C1.016
%
G90
G05
T1
X154.076Y-95.021
X155.499Y-95.021
X157.277Y-94.183
X157.861Y-88.138
X161.9Y-98.273
X162.636Y-100.584
X164.592Y-80.442
X170.815Y-98.679
X176.911Y-89.535
X176.911Y-90.424
X179.832Y-87.122
X180.721Y-87.122
T2
X153.975Y-99.136
X153.975Y-100.406
X153.975Y-101.676
T3
X174.523Y-95.809
X174.523Y-97.809
T4
X175.59Y-101.6
X178.13Y-101.6
X180.67Y-101.6
T5
X159.512Y-83.312
X164.592Y-83.312
X164.846Y-90.678
X164.846Y-93.218
X164.846Y-95.758
X164.846Y-98.298
X167.386Y-90.678
X167.386Y-93.218
X167.386Y-95.758
X167.386Y-98.298
X169.672Y-83.312
X174.752Y-83.312
X179.832Y-83.312
T0
M30
