%TF.GenerationSoftware,KiCad,Pcbnew,(5.1.5)-3*%
%TF.CreationDate,2021-10-08T15:08:23+02:00*%
%TF.ProjectId,esp01-ws2812b-breakout,65737030-312d-4777-9332-383132622d62,rev?*%
%TF.SameCoordinates,Original*%
%TF.FileFunction,Legend,Top*%
%TF.FilePolarity,Positive*%
%FSLAX46Y46*%
G04 Gerber Fmt 4.6, Leading zero omitted, Abs format (unit mm)*
G04 Created by KiCad (PCBNEW (5.1.5)-3) date 2021-10-08 15:08:23*
%MOMM*%
%LPD*%
G04 APERTURE LIST*
%ADD10C,0.120000*%
%ADD11C,0.100000*%
%ADD12C,0.152400*%
%ADD13C,0.150000*%
G04 APERTURE END LIST*
D10*
X157353000Y-100838000D02*
X159385000Y-100838000D01*
X157353000Y-97028000D02*
X157353000Y-100838000D01*
X155448000Y-97028000D02*
X157353000Y-97028000D01*
X155448000Y-94996000D02*
X155448000Y-97028000D01*
X163195000Y-94996000D02*
X155448000Y-94996000D01*
X163195000Y-98552000D02*
X163195000Y-94996000D01*
X170688000Y-99949000D02*
X170688000Y-102108000D01*
X163195000Y-99949000D02*
X170688000Y-99949000D01*
X163195000Y-98552000D02*
X163195000Y-99949000D01*
X159385000Y-98552000D02*
X163195000Y-98552000D01*
X159385000Y-102108000D02*
X159385000Y-98552000D01*
D11*
X166600476Y-86086190D02*
X166600476Y-86443333D01*
X166576666Y-86514761D01*
X166529047Y-86562380D01*
X166457619Y-86586190D01*
X166410000Y-86586190D01*
X167076666Y-86586190D02*
X166838571Y-86586190D01*
X166838571Y-86086190D01*
X167529047Y-86538571D02*
X167505238Y-86562380D01*
X167433809Y-86586190D01*
X167386190Y-86586190D01*
X167314761Y-86562380D01*
X167267142Y-86514761D01*
X167243333Y-86467142D01*
X167219523Y-86371904D01*
X167219523Y-86300476D01*
X167243333Y-86205238D01*
X167267142Y-86157619D01*
X167314761Y-86110000D01*
X167386190Y-86086190D01*
X167433809Y-86086190D01*
X167505238Y-86110000D01*
X167529047Y-86133809D01*
X167886190Y-86086190D02*
X167886190Y-86443333D01*
X167862380Y-86514761D01*
X167814761Y-86562380D01*
X167743333Y-86586190D01*
X167695714Y-86586190D01*
X168362380Y-86586190D02*
X168124285Y-86586190D01*
X168124285Y-86086190D01*
X168814761Y-86538571D02*
X168790952Y-86562380D01*
X168719523Y-86586190D01*
X168671904Y-86586190D01*
X168600476Y-86562380D01*
X168552857Y-86514761D01*
X168529047Y-86467142D01*
X168505238Y-86371904D01*
X168505238Y-86300476D01*
X168529047Y-86205238D01*
X168552857Y-86157619D01*
X168600476Y-86110000D01*
X168671904Y-86086190D01*
X168719523Y-86086190D01*
X168790952Y-86110000D01*
X168814761Y-86133809D01*
X169171904Y-86086190D02*
X169171904Y-86443333D01*
X169148095Y-86514761D01*
X169100476Y-86562380D01*
X169029047Y-86586190D01*
X168981428Y-86586190D01*
X169648095Y-86586190D02*
X169410000Y-86586190D01*
X169410000Y-86086190D01*
X170100476Y-86538571D02*
X170076666Y-86562380D01*
X170005238Y-86586190D01*
X169957619Y-86586190D01*
X169886190Y-86562380D01*
X169838571Y-86514761D01*
X169814761Y-86467142D01*
X169790952Y-86371904D01*
X169790952Y-86300476D01*
X169814761Y-86205238D01*
X169838571Y-86157619D01*
X169886190Y-86110000D01*
X169957619Y-86086190D01*
X170005238Y-86086190D01*
X170076666Y-86110000D01*
X170100476Y-86133809D01*
X170457619Y-86086190D02*
X170457619Y-86443333D01*
X170433809Y-86514761D01*
X170386190Y-86562380D01*
X170314761Y-86586190D01*
X170267142Y-86586190D01*
X170933809Y-86586190D02*
X170695714Y-86586190D01*
X170695714Y-86086190D01*
X171386190Y-86538571D02*
X171362380Y-86562380D01*
X171290952Y-86586190D01*
X171243333Y-86586190D01*
X171171904Y-86562380D01*
X171124285Y-86514761D01*
X171100476Y-86467142D01*
X171076666Y-86371904D01*
X171076666Y-86300476D01*
X171100476Y-86205238D01*
X171124285Y-86157619D01*
X171171904Y-86110000D01*
X171243333Y-86086190D01*
X171290952Y-86086190D01*
X171362380Y-86110000D01*
X171386190Y-86133809D01*
D12*
%TO.C,U2*%
X163576000Y-99568000D02*
X166116000Y-99568000D01*
X163576000Y-89408000D02*
X163576000Y-99568000D01*
X168656000Y-89408000D02*
X163576000Y-89408000D01*
X168656000Y-97028000D02*
X168656000Y-89408000D01*
X168656000Y-99568000D02*
X168656000Y-97028000D01*
X166116000Y-99568000D02*
X168656000Y-99568000D01*
D10*
X167386000Y-89090500D02*
X163576000Y-89090500D01*
X163576000Y-89090500D02*
X164211000Y-88455500D01*
%TO.C,J1*%
X182372000Y-87185500D02*
X172212000Y-87185500D01*
X172212000Y-87185500D02*
X172212000Y-79438500D01*
X172212000Y-79438500D02*
X182372000Y-79438500D01*
X182372000Y-79438500D02*
X182372000Y-87185500D01*
%TO.C,J2*%
X162052000Y-87185500D02*
X151892000Y-87185500D01*
X151892000Y-87185500D02*
X151892000Y-79438500D01*
X151892000Y-79438500D02*
X162052000Y-79438500D01*
X172212000Y-79438500D02*
X172212000Y-87185500D01*
X162052000Y-79438500D02*
X172212000Y-79438500D01*
X172212000Y-87185500D02*
X162052000Y-87185500D01*
%TO.C,J3*%
X181924000Y-101660000D02*
X181924000Y-99000000D01*
X176784000Y-101660000D02*
X181924000Y-101660000D01*
X176784000Y-99000000D02*
X181924000Y-99000000D01*
X176784000Y-101660000D02*
X176784000Y-99000000D01*
X175514000Y-101660000D02*
X174184000Y-101660000D01*
X174184000Y-101660000D02*
X174184000Y-100330000D01*
%TO.C,U1*%
X154452000Y-87522000D02*
X154452000Y-88782000D01*
X154452000Y-94342000D02*
X154452000Y-93082000D01*
X158212000Y-87522000D02*
X154452000Y-87522000D01*
X160462000Y-94342000D02*
X154452000Y-94342000D01*
%TO.C,U3*%
X156359000Y-97591000D02*
X152759000Y-97591000D01*
X156397478Y-97602522D02*
G75*
G02X154559000Y-102041000I-1838478J-1838478D01*
G01*
X152720522Y-97602522D02*
G75*
G03X154559000Y-102041000I1838478J-1838478D01*
G01*
%TO.C,Q1*%
X162809000Y-96030000D02*
X161879000Y-96030000D01*
X159649000Y-96030000D02*
X160579000Y-96030000D01*
X159649000Y-96030000D02*
X159649000Y-98190000D01*
X162809000Y-96030000D02*
X162809000Y-97490000D01*
%TO.C,Q2*%
X162870000Y-99554000D02*
X162870000Y-101014000D01*
X159710000Y-99554000D02*
X159710000Y-101714000D01*
X159710000Y-99554000D02*
X160640000Y-99554000D01*
X162870000Y-99554000D02*
X161940000Y-99554000D01*
%TO.C,C1*%
X176350000Y-92933225D02*
X175850000Y-92933225D01*
X176100000Y-92683225D02*
X176100000Y-93183225D01*
X174909000Y-98089000D02*
X174341000Y-98089000D01*
X175143000Y-98049000D02*
X174107000Y-98049000D01*
X175302000Y-98009000D02*
X173948000Y-98009000D01*
X175430000Y-97969000D02*
X173820000Y-97969000D01*
X175540000Y-97929000D02*
X173710000Y-97929000D01*
X175636000Y-97889000D02*
X173614000Y-97889000D01*
X175723000Y-97849000D02*
X173527000Y-97849000D01*
X175803000Y-97809000D02*
X173447000Y-97809000D01*
X175876000Y-97769000D02*
X173374000Y-97769000D01*
X175944000Y-97729000D02*
X173306000Y-97729000D01*
X176008000Y-97689000D02*
X173242000Y-97689000D01*
X176068000Y-97649000D02*
X173182000Y-97649000D01*
X176125000Y-97609000D02*
X173125000Y-97609000D01*
X176179000Y-97569000D02*
X173071000Y-97569000D01*
X176230000Y-97529000D02*
X173020000Y-97529000D01*
X173585000Y-97489000D02*
X172972000Y-97489000D01*
X176278000Y-97489000D02*
X175665000Y-97489000D01*
X173585000Y-97449000D02*
X172926000Y-97449000D01*
X176324000Y-97449000D02*
X175665000Y-97449000D01*
X173585000Y-97409000D02*
X172882000Y-97409000D01*
X176368000Y-97409000D02*
X175665000Y-97409000D01*
X173585000Y-97369000D02*
X172840000Y-97369000D01*
X176410000Y-97369000D02*
X175665000Y-97369000D01*
X173585000Y-97329000D02*
X172799000Y-97329000D01*
X176451000Y-97329000D02*
X175665000Y-97329000D01*
X173585000Y-97289000D02*
X172761000Y-97289000D01*
X176489000Y-97289000D02*
X175665000Y-97289000D01*
X173585000Y-97249000D02*
X172724000Y-97249000D01*
X176526000Y-97249000D02*
X175665000Y-97249000D01*
X173585000Y-97209000D02*
X172688000Y-97209000D01*
X176562000Y-97209000D02*
X175665000Y-97209000D01*
X173585000Y-97169000D02*
X172654000Y-97169000D01*
X176596000Y-97169000D02*
X175665000Y-97169000D01*
X173585000Y-97129000D02*
X172621000Y-97129000D01*
X176629000Y-97129000D02*
X175665000Y-97129000D01*
X173585000Y-97089000D02*
X172590000Y-97089000D01*
X176660000Y-97089000D02*
X175665000Y-97089000D01*
X173585000Y-97049000D02*
X172560000Y-97049000D01*
X176690000Y-97049000D02*
X175665000Y-97049000D01*
X173585000Y-97009000D02*
X172530000Y-97009000D01*
X176720000Y-97009000D02*
X175665000Y-97009000D01*
X173585000Y-96969000D02*
X172503000Y-96969000D01*
X176747000Y-96969000D02*
X175665000Y-96969000D01*
X173585000Y-96929000D02*
X172476000Y-96929000D01*
X176774000Y-96929000D02*
X175665000Y-96929000D01*
X173585000Y-96889000D02*
X172450000Y-96889000D01*
X176800000Y-96889000D02*
X175665000Y-96889000D01*
X173585000Y-96849000D02*
X172425000Y-96849000D01*
X176825000Y-96849000D02*
X175665000Y-96849000D01*
X173585000Y-96809000D02*
X172401000Y-96809000D01*
X176849000Y-96809000D02*
X175665000Y-96809000D01*
X173585000Y-96769000D02*
X172378000Y-96769000D01*
X176872000Y-96769000D02*
X175665000Y-96769000D01*
X173585000Y-96729000D02*
X172357000Y-96729000D01*
X176893000Y-96729000D02*
X175665000Y-96729000D01*
X173585000Y-96689000D02*
X172335000Y-96689000D01*
X176915000Y-96689000D02*
X175665000Y-96689000D01*
X173585000Y-96649000D02*
X172315000Y-96649000D01*
X176935000Y-96649000D02*
X175665000Y-96649000D01*
X173585000Y-96609000D02*
X172296000Y-96609000D01*
X176954000Y-96609000D02*
X175665000Y-96609000D01*
X173585000Y-96569000D02*
X172277000Y-96569000D01*
X176973000Y-96569000D02*
X175665000Y-96569000D01*
X173585000Y-96529000D02*
X172260000Y-96529000D01*
X176990000Y-96529000D02*
X175665000Y-96529000D01*
X173585000Y-96489000D02*
X172243000Y-96489000D01*
X177007000Y-96489000D02*
X175665000Y-96489000D01*
X173585000Y-96449000D02*
X172227000Y-96449000D01*
X177023000Y-96449000D02*
X175665000Y-96449000D01*
X173585000Y-96409000D02*
X172211000Y-96409000D01*
X177039000Y-96409000D02*
X175665000Y-96409000D01*
X173585000Y-96369000D02*
X172197000Y-96369000D01*
X177053000Y-96369000D02*
X175665000Y-96369000D01*
X173585000Y-96329000D02*
X172183000Y-96329000D01*
X177067000Y-96329000D02*
X175665000Y-96329000D01*
X173585000Y-96289000D02*
X172170000Y-96289000D01*
X177080000Y-96289000D02*
X175665000Y-96289000D01*
X173585000Y-96249000D02*
X172157000Y-96249000D01*
X177093000Y-96249000D02*
X175665000Y-96249000D01*
X173585000Y-96209000D02*
X172145000Y-96209000D01*
X177105000Y-96209000D02*
X175665000Y-96209000D01*
X173585000Y-96168000D02*
X172134000Y-96168000D01*
X177116000Y-96168000D02*
X175665000Y-96168000D01*
X173585000Y-96128000D02*
X172124000Y-96128000D01*
X177126000Y-96128000D02*
X175665000Y-96128000D01*
X173585000Y-96088000D02*
X172114000Y-96088000D01*
X177136000Y-96088000D02*
X175665000Y-96088000D01*
X173585000Y-96048000D02*
X172105000Y-96048000D01*
X177145000Y-96048000D02*
X175665000Y-96048000D01*
X173585000Y-96008000D02*
X172097000Y-96008000D01*
X177153000Y-96008000D02*
X175665000Y-96008000D01*
X173585000Y-95968000D02*
X172089000Y-95968000D01*
X177161000Y-95968000D02*
X175665000Y-95968000D01*
X173585000Y-95928000D02*
X172082000Y-95928000D01*
X177168000Y-95928000D02*
X175665000Y-95928000D01*
X173585000Y-95888000D02*
X172075000Y-95888000D01*
X177175000Y-95888000D02*
X175665000Y-95888000D01*
X173585000Y-95848000D02*
X172069000Y-95848000D01*
X177181000Y-95848000D02*
X175665000Y-95848000D01*
X173585000Y-95808000D02*
X172064000Y-95808000D01*
X177186000Y-95808000D02*
X175665000Y-95808000D01*
X173585000Y-95768000D02*
X172060000Y-95768000D01*
X177190000Y-95768000D02*
X175665000Y-95768000D01*
X173585000Y-95728000D02*
X172056000Y-95728000D01*
X177194000Y-95728000D02*
X175665000Y-95728000D01*
X173585000Y-95688000D02*
X172052000Y-95688000D01*
X177198000Y-95688000D02*
X175665000Y-95688000D01*
X173585000Y-95648000D02*
X172049000Y-95648000D01*
X177201000Y-95648000D02*
X175665000Y-95648000D01*
X173585000Y-95608000D02*
X172047000Y-95608000D01*
X177203000Y-95608000D02*
X175665000Y-95608000D01*
X173585000Y-95568000D02*
X172046000Y-95568000D01*
X177204000Y-95568000D02*
X175665000Y-95568000D01*
X177205000Y-95528000D02*
X175665000Y-95528000D01*
X173585000Y-95528000D02*
X172045000Y-95528000D01*
X177205000Y-95488000D02*
X175665000Y-95488000D01*
X173585000Y-95488000D02*
X172045000Y-95488000D01*
X177245000Y-95488000D02*
G75*
G03X177245000Y-95488000I-2620000J0D01*
G01*
%TO.C,C2*%
X161190000Y-88998248D02*
X161190000Y-89520752D01*
X162660000Y-88998248D02*
X162660000Y-89520752D01*
%TO.C,C3*%
X162660000Y-93373752D02*
X162660000Y-92851248D01*
X161190000Y-93373752D02*
X161190000Y-92851248D01*
%TO.C,C4*%
X169699000Y-96124752D02*
X169699000Y-95602248D01*
X171169000Y-96124752D02*
X171169000Y-95602248D01*
%TO.C,F1*%
X171436000Y-87493000D02*
X171436000Y-87693000D01*
X173736000Y-87493000D02*
X171436000Y-87493000D01*
X182386000Y-92593000D02*
X180086000Y-92593000D01*
X182386000Y-92393000D02*
X182386000Y-92593000D01*
X180086000Y-92593000D02*
X171436000Y-92593000D01*
X171436000Y-92593000D02*
X171436000Y-87693000D01*
X182386000Y-87493000D02*
X182386000Y-92393000D01*
X173736000Y-87493000D02*
X182386000Y-87493000D01*
%TO.C,R1*%
X157596064Y-95277000D02*
X157141936Y-95277000D01*
X157596064Y-96747000D02*
X157141936Y-96747000D01*
%TO.C,R2*%
X157634000Y-99176064D02*
X157634000Y-98721936D01*
X159104000Y-99176064D02*
X159104000Y-98721936D01*
%TO.C,R3*%
X168571936Y-100357000D02*
X169026064Y-100357000D01*
X168571936Y-101827000D02*
X169026064Y-101827000D01*
%TO.C,R4*%
X164761936Y-101827000D02*
X165216064Y-101827000D01*
X164761936Y-100357000D02*
X165216064Y-100357000D01*
%TO.C,R5*%
X173201000Y-100573064D02*
X173201000Y-100118936D01*
X171731000Y-100573064D02*
X171731000Y-100118936D01*
%TO.C,R6*%
X153770000Y-95149936D02*
X153770000Y-95604064D01*
X152300000Y-95149936D02*
X152300000Y-95604064D01*
%TO.C,J1*%
D13*
X176958666Y-79716380D02*
X176958666Y-80430666D01*
X176911047Y-80573523D01*
X176815809Y-80668761D01*
X176672952Y-80716380D01*
X176577714Y-80716380D01*
X177958666Y-80716380D02*
X177387238Y-80716380D01*
X177672952Y-80716380D02*
X177672952Y-79716380D01*
X177577714Y-79859238D01*
X177482476Y-79954476D01*
X177387238Y-80002095D01*
%TO.C,J2*%
X161972666Y-79716380D02*
X161972666Y-80430666D01*
X161925047Y-80573523D01*
X161829809Y-80668761D01*
X161686952Y-80716380D01*
X161591714Y-80716380D01*
X162401238Y-79811619D02*
X162448857Y-79764000D01*
X162544095Y-79716380D01*
X162782190Y-79716380D01*
X162877428Y-79764000D01*
X162925047Y-79811619D01*
X162972666Y-79906857D01*
X162972666Y-80002095D01*
X162925047Y-80144952D01*
X162353619Y-80716380D01*
X162972666Y-80716380D01*
%TO.C,U1*%
X154990095Y-92924380D02*
X154990095Y-93733904D01*
X155037714Y-93829142D01*
X155085333Y-93876761D01*
X155180571Y-93924380D01*
X155371047Y-93924380D01*
X155466285Y-93876761D01*
X155513904Y-93829142D01*
X155561523Y-93733904D01*
X155561523Y-92924380D01*
X156561523Y-93924380D02*
X155990095Y-93924380D01*
X156275809Y-93924380D02*
X156275809Y-92924380D01*
X156180571Y-93067238D01*
X156085333Y-93162476D01*
X155990095Y-93210095D01*
%TO.C,U3*%
X153797095Y-100671380D02*
X153797095Y-101480904D01*
X153844714Y-101576142D01*
X153892333Y-101623761D01*
X153987571Y-101671380D01*
X154178047Y-101671380D01*
X154273285Y-101623761D01*
X154320904Y-101576142D01*
X154368523Y-101480904D01*
X154368523Y-100671380D01*
X154749476Y-100671380D02*
X155368523Y-100671380D01*
X155035190Y-101052333D01*
X155178047Y-101052333D01*
X155273285Y-101099952D01*
X155320904Y-101147571D01*
X155368523Y-101242809D01*
X155368523Y-101480904D01*
X155320904Y-101576142D01*
X155273285Y-101623761D01*
X155178047Y-101671380D01*
X154892333Y-101671380D01*
X154797095Y-101623761D01*
X154749476Y-101576142D01*
%TO.C,C1*%
X177252333Y-98274142D02*
X177204714Y-98321761D01*
X177061857Y-98369380D01*
X176966619Y-98369380D01*
X176823761Y-98321761D01*
X176728523Y-98226523D01*
X176680904Y-98131285D01*
X176633285Y-97940809D01*
X176633285Y-97797952D01*
X176680904Y-97607476D01*
X176728523Y-97512238D01*
X176823761Y-97417000D01*
X176966619Y-97369380D01*
X177061857Y-97369380D01*
X177204714Y-97417000D01*
X177252333Y-97464619D01*
X178204714Y-98369380D02*
X177633285Y-98369380D01*
X177919000Y-98369380D02*
X177919000Y-97369380D01*
X177823761Y-97512238D01*
X177728523Y-97607476D01*
X177633285Y-97655095D01*
%TO.C,C4*%
X170267333Y-93956142D02*
X170219714Y-94003761D01*
X170076857Y-94051380D01*
X169981619Y-94051380D01*
X169838761Y-94003761D01*
X169743523Y-93908523D01*
X169695904Y-93813285D01*
X169648285Y-93622809D01*
X169648285Y-93479952D01*
X169695904Y-93289476D01*
X169743523Y-93194238D01*
X169838761Y-93099000D01*
X169981619Y-93051380D01*
X170076857Y-93051380D01*
X170219714Y-93099000D01*
X170267333Y-93146619D01*
X171124476Y-93384714D02*
X171124476Y-94051380D01*
X170886380Y-93003761D02*
X170648285Y-93718047D01*
X171267333Y-93718047D01*
%TO.C,F1*%
X176839571Y-90376333D02*
X176839571Y-90709666D01*
X177363380Y-90709666D02*
X176363380Y-90709666D01*
X176363380Y-90233476D01*
X177363380Y-89328714D02*
X177363380Y-89900142D01*
X177363380Y-89614428D02*
X176363380Y-89614428D01*
X176506238Y-89709666D01*
X176601476Y-89804904D01*
X176649095Y-89900142D01*
%TO.C,R5*%
X171521380Y-99099666D02*
X171045190Y-99433000D01*
X171521380Y-99671095D02*
X170521380Y-99671095D01*
X170521380Y-99290142D01*
X170569000Y-99194904D01*
X170616619Y-99147285D01*
X170711857Y-99099666D01*
X170854714Y-99099666D01*
X170949952Y-99147285D01*
X170997571Y-99194904D01*
X171045190Y-99290142D01*
X171045190Y-99671095D01*
X170521380Y-98194904D02*
X170521380Y-98671095D01*
X170997571Y-98718714D01*
X170949952Y-98671095D01*
X170902333Y-98575857D01*
X170902333Y-98337761D01*
X170949952Y-98242523D01*
X170997571Y-98194904D01*
X171092809Y-98147285D01*
X171330904Y-98147285D01*
X171426142Y-98194904D01*
X171473761Y-98242523D01*
X171521380Y-98337761D01*
X171521380Y-98575857D01*
X171473761Y-98671095D01*
X171426142Y-98718714D01*
%TO.C,R6*%
X155011380Y-96559666D02*
X154535190Y-96893000D01*
X155011380Y-97131095D02*
X154011380Y-97131095D01*
X154011380Y-96750142D01*
X154059000Y-96654904D01*
X154106619Y-96607285D01*
X154201857Y-96559666D01*
X154344714Y-96559666D01*
X154439952Y-96607285D01*
X154487571Y-96654904D01*
X154535190Y-96750142D01*
X154535190Y-97131095D01*
X154011380Y-95702523D02*
X154011380Y-95893000D01*
X154059000Y-95988238D01*
X154106619Y-96035857D01*
X154249476Y-96131095D01*
X154439952Y-96178714D01*
X154820904Y-96178714D01*
X154916142Y-96131095D01*
X154963761Y-96083476D01*
X155011380Y-95988238D01*
X155011380Y-95797761D01*
X154963761Y-95702523D01*
X154916142Y-95654904D01*
X154820904Y-95607285D01*
X154582809Y-95607285D01*
X154487571Y-95654904D01*
X154439952Y-95702523D01*
X154392333Y-95797761D01*
X154392333Y-95988238D01*
X154439952Y-96083476D01*
X154487571Y-96131095D01*
X154582809Y-96178714D01*
%TD*%
M02*
