%TF.GenerationSoftware,KiCad,Pcbnew,(5.1.10)-1*%
%TF.CreationDate,2021-12-10T13:36:25+01:00*%
%TF.ProjectId,esp01-ws2812b-breakout,65737030-312d-4777-9332-383132622d62,rev?*%
%TF.SameCoordinates,Original*%
%TF.FileFunction,Copper,L2,Bot*%
%TF.FilePolarity,Positive*%
%FSLAX46Y46*%
G04 Gerber Fmt 4.6, Leading zero omitted, Abs format (unit mm)*
G04 Created by KiCad (PCBNEW (5.1.10)-1) date 2021-12-10 13:36:25*
%MOMM*%
%LPD*%
G01*
G04 APERTURE LIST*
%TA.AperFunction,ComponentPad*%
%ADD10R,1.727200X1.727200*%
%TD*%
%TA.AperFunction,ComponentPad*%
%ADD11O,1.727200X1.727200*%
%TD*%
%TA.AperFunction,ComponentPad*%
%ADD12C,1.727200*%
%TD*%
%TA.AperFunction,ComponentPad*%
%ADD13R,1.700000X1.700000*%
%TD*%
%TA.AperFunction,ComponentPad*%
%ADD14O,1.700000X1.700000*%
%TD*%
%TA.AperFunction,ComponentPad*%
%ADD15O,1.500000X1.050000*%
%TD*%
%TA.AperFunction,ComponentPad*%
%ADD16R,1.500000X1.050000*%
%TD*%
%TA.AperFunction,ComponentPad*%
%ADD17R,1.600000X1.600000*%
%TD*%
%TA.AperFunction,ComponentPad*%
%ADD18C,1.600000*%
%TD*%
%TA.AperFunction,ViaPad*%
%ADD19C,0.800000*%
%TD*%
%TA.AperFunction,Conductor*%
%ADD20C,0.500000*%
%TD*%
%TA.AperFunction,Conductor*%
%ADD21C,0.250000*%
%TD*%
G04 APERTURE END LIST*
D10*
%TO.P,U2,1*%
%TO.N,N/C*%
X167386000Y-98298000D03*
D11*
%TO.P,U2,2*%
%TO.N,GND*%
X164846000Y-98298000D03*
%TO.P,U2,3*%
%TO.N,+3V3*%
X167386000Y-95758000D03*
%TO.P,U2,4*%
%TO.N,DALLAS*%
X164846000Y-95758000D03*
%TO.P,U2,5*%
%TO.N,N/C*%
X167386000Y-93218000D03*
%TO.P,U2,6*%
%TO.N,GPIO0*%
X164846000Y-93218000D03*
%TO.P,U2,7*%
%TO.N,+3V3*%
X167386000Y-90678000D03*
%TO.P,U2,8*%
%TO.N,LED1_3V3*%
X164846000Y-90678000D03*
%TD*%
D12*
%TO.P,J2,3*%
%TO.N,GND*%
X159512000Y-83312000D03*
%TO.P,J2,2*%
%TO.N,LED1_5V*%
X164592000Y-83312000D03*
%TO.P,J2,1*%
%TO.N,+5V*%
X169672000Y-83312000D03*
%TD*%
%TO.P,J1,2*%
%TO.N,Net-(F1-Pad2)*%
X174752000Y-83312000D03*
%TO.P,J1,1*%
%TO.N,GND*%
X179832000Y-83312000D03*
%TD*%
D13*
%TO.P,J3,1*%
%TO.N,GND*%
X175590200Y-101600000D03*
D14*
%TO.P,J3,2*%
%TO.N,GPIO0*%
X178130200Y-101600000D03*
%TO.P,J3,3*%
%TO.N,+3V3*%
X180670200Y-101600000D03*
%TD*%
D15*
%TO.P,U3,2*%
%TO.N,DALLAS*%
X153974800Y-100406200D03*
%TO.P,U3,3*%
%TO.N,+5V*%
X153974800Y-101676200D03*
D16*
%TO.P,U3,1*%
%TO.N,GND*%
X153974800Y-99136200D03*
%TD*%
D17*
%TO.P,C1,1*%
%TO.N,+5V*%
X174523400Y-95808800D03*
D18*
%TO.P,C1,2*%
%TO.N,GND*%
X174523400Y-97808800D03*
%TD*%
D19*
%TO.N,LED1_3V3*%
X161899600Y-98272600D03*
X157276800Y-94183200D03*
%TO.N,LED1_5V*%
X162636200Y-100584000D03*
%TO.N,DALLAS*%
X155498800Y-95021400D03*
%TO.N,+5V*%
X154076400Y-95021400D03*
X157861000Y-88138000D03*
%TO.N,GND*%
X176911000Y-89535000D03*
X176911000Y-90424000D03*
X179832000Y-87122000D03*
X180721000Y-87122000D03*
%TO.N,LED1_5V*%
X164592000Y-80441800D03*
%TO.N,GPIO0*%
X170815000Y-98679000D03*
%TD*%
D20*
%TO.N,+5V*%
X157861000Y-88138000D02*
X161518600Y-84480400D01*
X161518600Y-83439000D02*
X163322000Y-81635600D01*
X161518600Y-84480400D02*
X161518600Y-83439000D01*
X167995600Y-81635600D02*
X169672000Y-83312000D01*
X163322000Y-81635600D02*
X167995600Y-81635600D01*
X157861000Y-91236800D02*
X154076400Y-95021400D01*
X157861000Y-88138000D02*
X157861000Y-91236800D01*
%TO.N,GND*%
X176911000Y-90424000D02*
X176911000Y-89535000D01*
X176911000Y-89535000D02*
X179324000Y-87122000D01*
X179324000Y-87122000D02*
X179832000Y-87122000D01*
X179832000Y-87122000D02*
X180721000Y-87122000D01*
X174523400Y-100533200D02*
X175590200Y-101600000D01*
X174523400Y-97808800D02*
X174523400Y-100533200D01*
X172720599Y-99611601D02*
X174523400Y-97808800D01*
X166159601Y-99611601D02*
X172720599Y-99611601D01*
X164846000Y-98298000D02*
X166159601Y-99611601D01*
X159512000Y-83312000D02*
X156337000Y-86487000D01*
X156337000Y-90874612D02*
X152730200Y-94481412D01*
X156337000Y-86487000D02*
X156337000Y-90874612D01*
X152730200Y-94481412D02*
X152730200Y-95732600D01*
X153974800Y-96977200D02*
X153974800Y-99136200D01*
X152730200Y-95732600D02*
X153974800Y-96977200D01*
%TO.N,+3V3*%
X169025002Y-90678000D02*
X167386000Y-90678000D01*
X174625000Y-90678000D02*
X167386000Y-90678000D01*
X177292000Y-93345000D02*
X174625000Y-90678000D01*
X177292000Y-97028000D02*
X177292000Y-93345000D01*
X180670200Y-100406200D02*
X177292000Y-97028000D01*
X180670200Y-101600000D02*
X180670200Y-100406200D01*
D21*
%TO.N,LED1_5V*%
X153351399Y-94673399D02*
X157118198Y-90906600D01*
X153351399Y-95369401D02*
X153351399Y-94673399D01*
X158565998Y-100584000D02*
X153351399Y-95369401D01*
X162636200Y-100584000D02*
X158565998Y-100584000D01*
X160943590Y-83982408D02*
X160943590Y-83200824D01*
X157118198Y-87807800D02*
X160943590Y-83982408D01*
X160943590Y-83200824D02*
X163347014Y-80797400D01*
X157118198Y-90906600D02*
X157118198Y-87807800D01*
X164236400Y-80797400D02*
X164592000Y-80441800D01*
X163347014Y-80797400D02*
X164236400Y-80797400D01*
%TO.N,LED1_3V3*%
X160782000Y-90678000D02*
X157276800Y-94183200D01*
X164846000Y-90678000D02*
X160782000Y-90678000D01*
X163062801Y-97109399D02*
X161899600Y-98272600D01*
X166034601Y-96328529D02*
X165253731Y-97109399D01*
X166034601Y-95187471D02*
X166034601Y-96328529D01*
X165416529Y-94569399D02*
X166034601Y-95187471D01*
X157485199Y-94569399D02*
X165416529Y-94569399D01*
X157276800Y-94361000D02*
X157485199Y-94569399D01*
X165253731Y-97109399D02*
X163062801Y-97109399D01*
X157276800Y-94183200D02*
X157276800Y-94361000D01*
%TO.N,GPIO0*%
X168955601Y-92029399D02*
X166034601Y-92029399D01*
X170815000Y-93888798D02*
X168955601Y-92029399D01*
X166034601Y-92029399D02*
X164846000Y-93218000D01*
X170815000Y-98679000D02*
X170815000Y-93888798D01*
%TO.N,DALLAS*%
X164109400Y-95021400D02*
X164846000Y-95758000D01*
X155498800Y-95021400D02*
X164109400Y-95021400D01*
%TD*%
M02*
