%TF.GenerationSoftware,KiCad,Pcbnew,(5.1.5)-3*%
%TF.CreationDate,2021-10-08T15:08:23+02:00*%
%TF.ProjectId,esp01-ws2812b-breakout,65737030-312d-4777-9332-383132622d62,rev?*%
%TF.SameCoordinates,Original*%
%TF.FileFunction,Copper,L2,Bot*%
%TF.FilePolarity,Positive*%
%FSLAX46Y46*%
G04 Gerber Fmt 4.6, Leading zero omitted, Abs format (unit mm)*
G04 Created by KiCad (PCBNEW (5.1.5)-3) date 2021-10-08 15:08:23*
%MOMM*%
%LPD*%
G04 APERTURE LIST*
%TA.AperFunction,ComponentPad*%
%ADD10R,1.727200X1.727200*%
%TD*%
%TA.AperFunction,ComponentPad*%
%ADD11O,1.727200X1.727200*%
%TD*%
%TA.AperFunction,ComponentPad*%
%ADD12C,1.727200*%
%TD*%
%TA.AperFunction,ComponentPad*%
%ADD13R,1.700000X1.700000*%
%TD*%
%TA.AperFunction,ComponentPad*%
%ADD14O,1.700000X1.700000*%
%TD*%
%TA.AperFunction,ComponentPad*%
%ADD15O,1.050000X1.500000*%
%TD*%
%TA.AperFunction,ComponentPad*%
%ADD16R,1.050000X1.500000*%
%TD*%
%TA.AperFunction,ComponentPad*%
%ADD17R,1.600000X1.600000*%
%TD*%
%TA.AperFunction,ComponentPad*%
%ADD18C,1.600000*%
%TD*%
%TA.AperFunction,ViaPad*%
%ADD19C,0.800000*%
%TD*%
%TA.AperFunction,Conductor*%
%ADD20C,0.250000*%
%TD*%
%TA.AperFunction,Conductor*%
%ADD21C,0.500000*%
%TD*%
G04 APERTURE END LIST*
D10*
%TO.P,U2,1*%
%TO.N,LED1_3V3*%
X167386000Y-98298000D03*
D11*
%TO.P,U2,2*%
%TO.N,GND*%
X164846000Y-98298000D03*
%TO.P,U2,3*%
%TO.N,+3V3*%
X167386000Y-95758000D03*
%TO.P,U2,4*%
%TO.N,DALLAS*%
X164846000Y-95758000D03*
%TO.P,U2,5*%
%TO.N,Net-(U2-Pad5)*%
X167386000Y-93218000D03*
%TO.P,U2,6*%
%TO.N,GPIO0*%
X164846000Y-93218000D03*
%TO.P,U2,7*%
%TO.N,+3V3*%
X167386000Y-90678000D03*
%TO.P,U2,8*%
%TO.N,LED2_3V3*%
X164846000Y-90678000D03*
%TD*%
D12*
%TO.P,J1,2*%
%TO.N,Net-(F1-Pad2)*%
X174752000Y-83312000D03*
%TO.P,J1,1*%
%TO.N,GND*%
X179832000Y-83312000D03*
%TD*%
%TO.P,J2,4*%
%TO.N,GND*%
X154432000Y-83312000D03*
%TO.P,J2,3*%
%TO.N,LED2_5V*%
X159512000Y-83312000D03*
%TO.P,J2,2*%
%TO.N,LED1_5V*%
X164592000Y-83312000D03*
%TO.P,J2,1*%
%TO.N,+5V*%
X169672000Y-83312000D03*
%TD*%
D13*
%TO.P,J3,1*%
%TO.N,GND*%
X175514000Y-100330000D03*
D14*
%TO.P,J3,2*%
%TO.N,GPIO0*%
X178054000Y-100330000D03*
%TO.P,J3,3*%
%TO.N,+3V3*%
X180594000Y-100330000D03*
%TD*%
D15*
%TO.P,U3,2*%
%TO.N,DALLAS*%
X154559000Y-99441000D03*
%TO.P,U3,3*%
%TO.N,+5V*%
X153289000Y-99441000D03*
D16*
%TO.P,U3,1*%
%TO.N,GND*%
X155829000Y-99441000D03*
%TD*%
D17*
%TO.P,C1,1*%
%TO.N,+5V*%
X174625000Y-94488000D03*
D18*
%TO.P,C1,2*%
%TO.N,GND*%
X174625000Y-96488000D03*
%TD*%
D19*
%TO.N,+5V*%
X157861000Y-89027000D03*
X157861000Y-88138000D03*
X159004000Y-101092000D03*
X163576000Y-99949000D03*
%TO.N,GND*%
X156845000Y-93218000D03*
X176911000Y-89535000D03*
X176911000Y-90424000D03*
X179832000Y-87122000D03*
X180721000Y-87122000D03*
X171704000Y-96901000D03*
%TO.N,+3V3*%
X169164000Y-98552000D03*
X162687000Y-95377000D03*
%TO.N,LED1_5V*%
X159766000Y-96520000D03*
%TO.N,LED2_5V*%
X162306000Y-98933000D03*
X164973000Y-99949000D03*
%TO.N,LED1_3V3*%
X166116000Y-89281000D03*
X162941000Y-96901000D03*
X154940000Y-94869000D03*
%TO.N,LED2_3V3*%
X162687000Y-100457000D03*
X170815000Y-100584000D03*
%TO.N,GPIO0*%
X170815000Y-93345000D03*
X170815000Y-98679000D03*
X169037000Y-91948000D03*
%TD*%
D20*
%TO.N,+5V*%
X153940000Y-101092000D02*
X153289000Y-100441000D01*
X153289000Y-100441000D02*
X153289000Y-99441000D01*
X159004000Y-101092000D02*
X153940000Y-101092000D01*
X160364001Y-99731999D02*
X159004000Y-101092000D01*
X163358999Y-99731999D02*
X160364001Y-99731999D01*
X163576000Y-99949000D02*
X163358999Y-99731999D01*
D21*
X157861000Y-83018870D02*
X157861000Y-89027000D01*
X158881471Y-81998399D02*
X157861000Y-83018870D01*
X168358399Y-81998399D02*
X158881471Y-81998399D01*
X169672000Y-83312000D02*
X168358399Y-81998399D01*
D20*
X159004000Y-97467412D02*
X159004000Y-101092000D01*
X157861000Y-96324412D02*
X159004000Y-97467412D01*
X157861000Y-89027000D02*
X157861000Y-96324412D01*
D21*
%TO.N,GND*%
X166159601Y-99611601D02*
X164846000Y-98298000D01*
X171501399Y-99611601D02*
X166159601Y-99611601D01*
X174625000Y-96488000D02*
X171501399Y-99611601D01*
X174625000Y-96488000D02*
X175514000Y-97377000D01*
X175514000Y-97377000D02*
X175514000Y-100330000D01*
X176911000Y-90424000D02*
X176911000Y-89535000D01*
X176911000Y-89535000D02*
X179324000Y-87122000D01*
X179324000Y-87122000D02*
X179832000Y-87122000D01*
X179832000Y-87122000D02*
X180721000Y-87122000D01*
X173704000Y-97409000D02*
X174625000Y-96488000D01*
X174212000Y-96901000D02*
X174625000Y-96488000D01*
X171704000Y-96901000D02*
X174212000Y-96901000D01*
D20*
%TO.N,+3V3*%
X169164000Y-97536000D02*
X167386000Y-95758000D01*
D21*
X167386000Y-90678000D02*
X174625000Y-90678000D01*
X174625000Y-90678000D02*
X177292000Y-93345000D01*
X177292000Y-97028000D02*
X180594000Y-100330000D01*
X177292000Y-93345000D02*
X177292000Y-97028000D01*
D20*
X169164000Y-97536000D02*
X169164000Y-98552000D01*
X166197399Y-94569399D02*
X167386000Y-95758000D01*
X163494601Y-94569399D02*
X166197399Y-94569399D01*
X162687000Y-95377000D02*
X163494601Y-94569399D01*
D21*
X169025002Y-90678000D02*
X167386000Y-90678000D01*
X169887001Y-91539999D02*
X169025002Y-90678000D01*
X169887001Y-93256999D02*
X169887001Y-91539999D01*
X167386000Y-95758000D02*
X169887001Y-93256999D01*
D20*
%TO.N,LED1_5V*%
X159766000Y-90620998D02*
X164592000Y-85794998D01*
X164592000Y-85794998D02*
X164592000Y-83312000D01*
X159766000Y-96520000D02*
X159766000Y-90620998D01*
%TO.N,LED2_5V*%
X159040999Y-83783001D02*
X159040999Y-96868001D01*
X164737870Y-99949000D02*
X164973000Y-99949000D01*
X159512000Y-83312000D02*
X159040999Y-83783001D01*
X160654011Y-97281011D02*
X162306000Y-98933000D01*
X159454009Y-97281011D02*
X160654011Y-97281011D01*
X159040999Y-96868001D02*
X159454009Y-97281011D01*
X163633002Y-98933000D02*
X162306000Y-98933000D01*
X164649002Y-99949000D02*
X163633002Y-98933000D01*
X164973000Y-99949000D02*
X164649002Y-99949000D01*
%TO.N,LED1_3V3*%
X166605130Y-98298000D02*
X167386000Y-98298000D01*
X165253731Y-96946601D02*
X166605130Y-98298000D01*
X162986601Y-96946601D02*
X165253731Y-96946601D01*
X162941000Y-96901000D02*
X162986601Y-96946601D01*
X154940000Y-94869000D02*
X154940000Y-94869000D01*
X154940000Y-86124870D02*
X154940000Y-94869000D01*
X158456894Y-80973380D02*
X154940000Y-84490274D01*
X171310610Y-82555070D02*
X169728919Y-80973379D01*
X171310611Y-84086389D02*
X171310610Y-82555070D01*
X154940000Y-84490274D02*
X154940000Y-86124870D01*
X169728919Y-80973379D02*
X158456894Y-80973380D01*
X166116000Y-89281000D02*
X171310611Y-84086389D01*
%TO.N,LED2_3V3*%
X170815000Y-100584000D02*
X170815000Y-100457000D01*
X170415001Y-100983999D02*
X163213999Y-100983999D01*
X170815000Y-100584000D02*
X170415001Y-100983999D01*
X163213999Y-100983999D02*
X162687000Y-100457000D01*
%TO.N,GPIO0*%
X168955601Y-92029399D02*
X169037000Y-91948000D01*
X166034601Y-92029399D02*
X168955601Y-92029399D01*
X164846000Y-93218000D02*
X166034601Y-92029399D01*
X170815000Y-93345000D02*
X170688000Y-93218000D01*
X170815000Y-98679000D02*
X170815000Y-93345000D01*
%TO.N,DALLAS*%
X155665001Y-97744997D02*
X154559000Y-98850998D01*
X155665001Y-84401683D02*
X155665001Y-97744997D01*
X158643295Y-81423389D02*
X155665001Y-84401683D01*
X169542519Y-81423389D02*
X158643295Y-81423389D01*
X154559000Y-98850998D02*
X154559000Y-99441000D01*
X170860601Y-82741471D02*
X169542519Y-81423389D01*
X170860601Y-83899989D02*
X170860601Y-82741471D01*
X166204591Y-88555999D02*
X170860601Y-83899989D01*
X165208871Y-88555999D02*
X166204591Y-88555999D01*
X161961999Y-91802871D02*
X165208871Y-88555999D01*
X161961999Y-95725001D02*
X161961999Y-91802871D01*
X162338999Y-96102001D02*
X161961999Y-95725001D01*
X164501999Y-96102001D02*
X162338999Y-96102001D01*
X164846000Y-95758000D02*
X164501999Y-96102001D01*
%TD*%
M02*
