%TF.GenerationSoftware,KiCad,Pcbnew,(5.1.10)-1*%
%TF.CreationDate,2021-12-10T13:36:25+01:00*%
%TF.ProjectId,esp01-ws2812b-breakout,65737030-312d-4777-9332-383132622d62,rev?*%
%TF.SameCoordinates,Original*%
%TF.FileFunction,Legend,Bot*%
%TF.FilePolarity,Positive*%
%FSLAX46Y46*%
G04 Gerber Fmt 4.6, Leading zero omitted, Abs format (unit mm)*
G04 Created by KiCad (PCBNEW (5.1.10)-1) date 2021-12-10 13:36:25*
%MOMM*%
%LPD*%
G01*
G04 APERTURE LIST*
%ADD10C,0.120000*%
%ADD11C,0.150000*%
%ADD12C,0.153000*%
G04 APERTURE END LIST*
D10*
X156972000Y-84709000D02*
X156972000Y-79375000D01*
X172212000Y-79375000D02*
X172212000Y-84709000D01*
X182372000Y-79375000D02*
X182372000Y-84709000D01*
D11*
X160223104Y-81084800D02*
X160318342Y-81037180D01*
X160461200Y-81037180D01*
X160604057Y-81084800D01*
X160699295Y-81180038D01*
X160746914Y-81275276D01*
X160794533Y-81465752D01*
X160794533Y-81608609D01*
X160746914Y-81799085D01*
X160699295Y-81894323D01*
X160604057Y-81989561D01*
X160461200Y-82037180D01*
X160365961Y-82037180D01*
X160223104Y-81989561D01*
X160175485Y-81941942D01*
X160175485Y-81608609D01*
X160365961Y-81608609D01*
X159746914Y-82037180D02*
X159746914Y-81037180D01*
X159175485Y-82037180D01*
X159175485Y-81037180D01*
X158699295Y-82037180D02*
X158699295Y-81037180D01*
X158461200Y-81037180D01*
X158318342Y-81084800D01*
X158223104Y-81180038D01*
X158175485Y-81275276D01*
X158127866Y-81465752D01*
X158127866Y-81608609D01*
X158175485Y-81799085D01*
X158223104Y-81894323D01*
X158318342Y-81989561D01*
X158461200Y-82037180D01*
X158699295Y-82037180D01*
X165234857Y-82113380D02*
X165711047Y-82113380D01*
X165711047Y-81113380D01*
X164901523Y-81589571D02*
X164568190Y-81589571D01*
X164425333Y-82113380D02*
X164901523Y-82113380D01*
X164901523Y-81113380D01*
X164425333Y-81113380D01*
X163996761Y-82113380D02*
X163996761Y-81113380D01*
X163758666Y-81113380D01*
X163615809Y-81161000D01*
X163520571Y-81256238D01*
X163472952Y-81351476D01*
X163425333Y-81541952D01*
X163425333Y-81684809D01*
X163472952Y-81875285D01*
X163520571Y-81970523D01*
X163615809Y-82065761D01*
X163758666Y-82113380D01*
X163996761Y-82113380D01*
X169862476Y-81113380D02*
X170338666Y-81113380D01*
X170386285Y-81589571D01*
X170338666Y-81541952D01*
X170243428Y-81494333D01*
X170005333Y-81494333D01*
X169910095Y-81541952D01*
X169862476Y-81589571D01*
X169814857Y-81684809D01*
X169814857Y-81922904D01*
X169862476Y-82018142D01*
X169910095Y-82065761D01*
X170005333Y-82113380D01*
X170243428Y-82113380D01*
X170338666Y-82065761D01*
X170386285Y-82018142D01*
X169529142Y-81113380D02*
X169195809Y-82113380D01*
X168862476Y-81113380D01*
X174942476Y-81113380D02*
X175418666Y-81113380D01*
X175466285Y-81589571D01*
X175418666Y-81541952D01*
X175323428Y-81494333D01*
X175085333Y-81494333D01*
X174990095Y-81541952D01*
X174942476Y-81589571D01*
X174894857Y-81684809D01*
X174894857Y-81922904D01*
X174942476Y-82018142D01*
X174990095Y-82065761D01*
X175085333Y-82113380D01*
X175323428Y-82113380D01*
X175418666Y-82065761D01*
X175466285Y-82018142D01*
X174609142Y-81113380D02*
X174275809Y-82113380D01*
X173942476Y-81113380D01*
X180593904Y-81161000D02*
X180689142Y-81113380D01*
X180832000Y-81113380D01*
X180974857Y-81161000D01*
X181070095Y-81256238D01*
X181117714Y-81351476D01*
X181165333Y-81541952D01*
X181165333Y-81684809D01*
X181117714Y-81875285D01*
X181070095Y-81970523D01*
X180974857Y-82065761D01*
X180832000Y-82113380D01*
X180736761Y-82113380D01*
X180593904Y-82065761D01*
X180546285Y-82018142D01*
X180546285Y-81684809D01*
X180736761Y-81684809D01*
X180117714Y-82113380D02*
X180117714Y-81113380D01*
X179546285Y-82113380D01*
X179546285Y-81113380D01*
X179070095Y-82113380D02*
X179070095Y-81113380D01*
X178832000Y-81113380D01*
X178689142Y-81161000D01*
X178593904Y-81256238D01*
X178546285Y-81351476D01*
X178498666Y-81541952D01*
X178498666Y-81684809D01*
X178546285Y-81875285D01*
X178593904Y-81970523D01*
X178689142Y-82065761D01*
X178832000Y-82113380D01*
X179070095Y-82113380D01*
X165617400Y-79690980D02*
X165426923Y-79690980D01*
X165331685Y-79738600D01*
X165236447Y-79833838D01*
X165188828Y-80024314D01*
X165188828Y-80357647D01*
X165236447Y-80548123D01*
X165331685Y-80643361D01*
X165426923Y-80690980D01*
X165617400Y-80690980D01*
X165712638Y-80643361D01*
X165807876Y-80548123D01*
X165855495Y-80357647D01*
X165855495Y-80024314D01*
X165807876Y-79833838D01*
X165712638Y-79738600D01*
X165617400Y-79690980D01*
X164760257Y-79690980D02*
X164760257Y-80500504D01*
X164712638Y-80595742D01*
X164665019Y-80643361D01*
X164569780Y-80690980D01*
X164379304Y-80690980D01*
X164284066Y-80643361D01*
X164236447Y-80595742D01*
X164188828Y-80500504D01*
X164188828Y-79690980D01*
X163855495Y-79690980D02*
X163284066Y-79690980D01*
X163569780Y-80690980D02*
X163569780Y-79690980D01*
X177866609Y-80563980D02*
X177866609Y-79563980D01*
X177390419Y-80563980D02*
X177390419Y-79563980D01*
X176818990Y-80563980D01*
X176818990Y-79563980D01*
D10*
X172212000Y-84709000D02*
X156972000Y-84709000D01*
X156972000Y-79375000D02*
X172212000Y-79375000D01*
X182372000Y-84709000D02*
X172212000Y-84709000D01*
X172212000Y-79375000D02*
X182372000Y-79375000D01*
D12*
X180058980Y-85864257D02*
X179792314Y-85864257D01*
X179678028Y-86283304D02*
X180058980Y-86283304D01*
X180058980Y-85483304D01*
X179678028Y-85483304D01*
X179373266Y-86245209D02*
X179258980Y-86283304D01*
X179068504Y-86283304D01*
X178992314Y-86245209D01*
X178954219Y-86207114D01*
X178916123Y-86130923D01*
X178916123Y-86054733D01*
X178954219Y-85978542D01*
X178992314Y-85940447D01*
X179068504Y-85902352D01*
X179220885Y-85864257D01*
X179297076Y-85826161D01*
X179335171Y-85788066D01*
X179373266Y-85711876D01*
X179373266Y-85635685D01*
X179335171Y-85559495D01*
X179297076Y-85521400D01*
X179220885Y-85483304D01*
X179030409Y-85483304D01*
X178916123Y-85521400D01*
X178573266Y-86283304D02*
X178573266Y-85483304D01*
X178268504Y-85483304D01*
X178192314Y-85521400D01*
X178154219Y-85559495D01*
X178116123Y-85635685D01*
X178116123Y-85749971D01*
X178154219Y-85826161D01*
X178192314Y-85864257D01*
X178268504Y-85902352D01*
X178573266Y-85902352D01*
X177773266Y-85978542D02*
X177163742Y-85978542D01*
X176630409Y-85483304D02*
X176554219Y-85483304D01*
X176478028Y-85521400D01*
X176439933Y-85559495D01*
X176401838Y-85635685D01*
X176363742Y-85788066D01*
X176363742Y-85978542D01*
X176401838Y-86130923D01*
X176439933Y-86207114D01*
X176478028Y-86245209D01*
X176554219Y-86283304D01*
X176630409Y-86283304D01*
X176706600Y-86245209D01*
X176744695Y-86207114D01*
X176782790Y-86130923D01*
X176820885Y-85978542D01*
X176820885Y-85788066D01*
X176782790Y-85635685D01*
X176744695Y-85559495D01*
X176706600Y-85521400D01*
X176630409Y-85483304D01*
X175601838Y-86283304D02*
X176058980Y-86283304D01*
X175830409Y-86283304D02*
X175830409Y-85483304D01*
X175906600Y-85597590D01*
X175982790Y-85673780D01*
X176058980Y-85711876D01*
X174268504Y-85483304D02*
X174649457Y-85483304D01*
X174687552Y-85864257D01*
X174649457Y-85826161D01*
X174573266Y-85788066D01*
X174382790Y-85788066D01*
X174306600Y-85826161D01*
X174268504Y-85864257D01*
X174230409Y-85940447D01*
X174230409Y-86130923D01*
X174268504Y-86207114D01*
X174306600Y-86245209D01*
X174382790Y-86283304D01*
X174573266Y-86283304D01*
X174649457Y-86245209D01*
X174687552Y-86207114D01*
X174001838Y-85483304D02*
X173735171Y-86283304D01*
X173468504Y-85483304D01*
X172630409Y-86054733D02*
X172249457Y-86054733D01*
X172706600Y-86283304D02*
X172439933Y-85483304D01*
X172173266Y-86283304D01*
X171563742Y-86283304D02*
X171563742Y-85483304D01*
X171563742Y-86245209D02*
X171639933Y-86283304D01*
X171792314Y-86283304D01*
X171868504Y-86245209D01*
X171906600Y-86207114D01*
X171944695Y-86130923D01*
X171944695Y-85902352D01*
X171906600Y-85826161D01*
X171868504Y-85788066D01*
X171792314Y-85749971D01*
X171639933Y-85749971D01*
X171563742Y-85788066D01*
X170839933Y-86283304D02*
X170839933Y-85483304D01*
X170839933Y-86245209D02*
X170916123Y-86283304D01*
X171068504Y-86283304D01*
X171144695Y-86245209D01*
X171182790Y-86207114D01*
X171220885Y-86130923D01*
X171220885Y-85902352D01*
X171182790Y-85826161D01*
X171144695Y-85788066D01*
X171068504Y-85749971D01*
X170916123Y-85749971D01*
X170839933Y-85788066D01*
X170458980Y-86283304D02*
X170458980Y-85749971D01*
X170458980Y-85902352D02*
X170420885Y-85826161D01*
X170382790Y-85788066D01*
X170306600Y-85749971D01*
X170230409Y-85749971D01*
X169658980Y-86245209D02*
X169735171Y-86283304D01*
X169887552Y-86283304D01*
X169963742Y-86245209D01*
X170001838Y-86169019D01*
X170001838Y-85864257D01*
X169963742Y-85788066D01*
X169887552Y-85749971D01*
X169735171Y-85749971D01*
X169658980Y-85788066D01*
X169620885Y-85864257D01*
X169620885Y-85940447D01*
X170001838Y-86016638D01*
X169316123Y-86245209D02*
X169239933Y-86283304D01*
X169087552Y-86283304D01*
X169011361Y-86245209D01*
X168973266Y-86169019D01*
X168973266Y-86130923D01*
X169011361Y-86054733D01*
X169087552Y-86016638D01*
X169201838Y-86016638D01*
X169278028Y-85978542D01*
X169316123Y-85902352D01*
X169316123Y-85864257D01*
X169278028Y-85788066D01*
X169201838Y-85749971D01*
X169087552Y-85749971D01*
X169011361Y-85788066D01*
X168668504Y-86245209D02*
X168592314Y-86283304D01*
X168439933Y-86283304D01*
X168363742Y-86245209D01*
X168325647Y-86169019D01*
X168325647Y-86130923D01*
X168363742Y-86054733D01*
X168439933Y-86016638D01*
X168554219Y-86016638D01*
X168630409Y-85978542D01*
X168668504Y-85902352D01*
X168668504Y-85864257D01*
X168630409Y-85788066D01*
X168554219Y-85749971D01*
X168439933Y-85749971D01*
X168363742Y-85788066D01*
X167639933Y-86283304D02*
X167639933Y-85864257D01*
X167678028Y-85788066D01*
X167754219Y-85749971D01*
X167906600Y-85749971D01*
X167982790Y-85788066D01*
X167639933Y-86245209D02*
X167716123Y-86283304D01*
X167906600Y-86283304D01*
X167982790Y-86245209D01*
X168020885Y-86169019D01*
X168020885Y-86092828D01*
X167982790Y-86016638D01*
X167906600Y-85978542D01*
X167716123Y-85978542D01*
X167639933Y-85940447D01*
X167258980Y-86283304D02*
X167258980Y-85483304D01*
X167258980Y-85788066D02*
X167182790Y-85749971D01*
X167030409Y-85749971D01*
X166954219Y-85788066D01*
X166916123Y-85826161D01*
X166878028Y-85902352D01*
X166878028Y-86130923D01*
X166916123Y-86207114D01*
X166954219Y-86245209D01*
X167030409Y-86283304D01*
X167182790Y-86283304D01*
X167258980Y-86245209D01*
X166420885Y-86283304D02*
X166497076Y-86245209D01*
X166535171Y-86169019D01*
X166535171Y-85483304D01*
X165811361Y-86245209D02*
X165887552Y-86283304D01*
X166039933Y-86283304D01*
X166116123Y-86245209D01*
X166154219Y-86169019D01*
X166154219Y-85864257D01*
X166116123Y-85788066D01*
X166039933Y-85749971D01*
X165887552Y-85749971D01*
X165811361Y-85788066D01*
X165773266Y-85864257D01*
X165773266Y-85940447D01*
X166154219Y-86016638D01*
X164363742Y-86283304D02*
X164630409Y-85902352D01*
X164820885Y-86283304D02*
X164820885Y-85483304D01*
X164516123Y-85483304D01*
X164439933Y-85521400D01*
X164401838Y-85559495D01*
X164363742Y-85635685D01*
X164363742Y-85749971D01*
X164401838Y-85826161D01*
X164439933Y-85864257D01*
X164516123Y-85902352D01*
X164820885Y-85902352D01*
X163601838Y-85521400D02*
X163678028Y-85483304D01*
X163792314Y-85483304D01*
X163906600Y-85521400D01*
X163982790Y-85597590D01*
X164020885Y-85673780D01*
X164058980Y-85826161D01*
X164058980Y-85940447D01*
X164020885Y-86092828D01*
X163982790Y-86169019D01*
X163906600Y-86245209D01*
X163792314Y-86283304D01*
X163716123Y-86283304D01*
X163601838Y-86245209D01*
X163563742Y-86207114D01*
X163563742Y-85940447D01*
X163716123Y-85940447D01*
X162954219Y-85864257D02*
X162839933Y-85902352D01*
X162801838Y-85940447D01*
X162763742Y-86016638D01*
X162763742Y-86130923D01*
X162801838Y-86207114D01*
X162839933Y-86245209D01*
X162916123Y-86283304D01*
X163220885Y-86283304D01*
X163220885Y-85483304D01*
X162954219Y-85483304D01*
X162878028Y-85521400D01*
X162839933Y-85559495D01*
X162801838Y-85635685D01*
X162801838Y-85711876D01*
X162839933Y-85788066D01*
X162878028Y-85826161D01*
X162954219Y-85864257D01*
X163220885Y-85864257D01*
X161430409Y-86283304D02*
X161811361Y-86283304D01*
X161811361Y-85483304D01*
X161163742Y-85864257D02*
X160897076Y-85864257D01*
X160782790Y-86283304D02*
X161163742Y-86283304D01*
X161163742Y-85483304D01*
X160782790Y-85483304D01*
X160439933Y-86283304D02*
X160439933Y-85483304D01*
X160249457Y-85483304D01*
X160135171Y-85521400D01*
X160058980Y-85597590D01*
X160020885Y-85673780D01*
X159982790Y-85826161D01*
X159982790Y-85940447D01*
X160020885Y-86092828D01*
X160058980Y-86169019D01*
X160135171Y-86245209D01*
X160249457Y-86283304D01*
X160439933Y-86283304D01*
X158763742Y-85864257D02*
X158649457Y-85902352D01*
X158611361Y-85940447D01*
X158573266Y-86016638D01*
X158573266Y-86130923D01*
X158611361Y-86207114D01*
X158649457Y-86245209D01*
X158725647Y-86283304D01*
X159030409Y-86283304D01*
X159030409Y-85483304D01*
X158763742Y-85483304D01*
X158687552Y-85521400D01*
X158649457Y-85559495D01*
X158611361Y-85635685D01*
X158611361Y-85711876D01*
X158649457Y-85788066D01*
X158687552Y-85826161D01*
X158763742Y-85864257D01*
X159030409Y-85864257D01*
X158230409Y-86283304D02*
X158230409Y-85749971D01*
X158230409Y-85902352D02*
X158192314Y-85826161D01*
X158154219Y-85788066D01*
X158078028Y-85749971D01*
X158001838Y-85749971D01*
X157430409Y-86245209D02*
X157506600Y-86283304D01*
X157658980Y-86283304D01*
X157735171Y-86245209D01*
X157773266Y-86169019D01*
X157773266Y-85864257D01*
X157735171Y-85788066D01*
X157658980Y-85749971D01*
X157506600Y-85749971D01*
X157430409Y-85788066D01*
X157392314Y-85864257D01*
X157392314Y-85940447D01*
X157773266Y-86016638D01*
X156706600Y-86283304D02*
X156706600Y-85864257D01*
X156744695Y-85788066D01*
X156820885Y-85749971D01*
X156973266Y-85749971D01*
X157049457Y-85788066D01*
X156706600Y-86245209D02*
X156782790Y-86283304D01*
X156973266Y-86283304D01*
X157049457Y-86245209D01*
X157087552Y-86169019D01*
X157087552Y-86092828D01*
X157049457Y-86016638D01*
X156973266Y-85978542D01*
X156782790Y-85978542D01*
X156706600Y-85940447D01*
X156325647Y-86283304D02*
X156325647Y-85483304D01*
X156249457Y-85978542D02*
X156020885Y-86283304D01*
X156020885Y-85749971D02*
X156325647Y-86054733D01*
X155563742Y-86283304D02*
X155639933Y-86245209D01*
X155678028Y-86207114D01*
X155716123Y-86130923D01*
X155716123Y-85902352D01*
X155678028Y-85826161D01*
X155639933Y-85788066D01*
X155563742Y-85749971D01*
X155449457Y-85749971D01*
X155373266Y-85788066D01*
X155335171Y-85826161D01*
X155297076Y-85902352D01*
X155297076Y-86130923D01*
X155335171Y-86207114D01*
X155373266Y-86245209D01*
X155449457Y-86283304D01*
X155563742Y-86283304D01*
X154611361Y-85749971D02*
X154611361Y-86283304D01*
X154954219Y-85749971D02*
X154954219Y-86169019D01*
X154916123Y-86245209D01*
X154839933Y-86283304D01*
X154725647Y-86283304D01*
X154649457Y-86245209D01*
X154611361Y-86207114D01*
X154344695Y-85749971D02*
X154039933Y-85749971D01*
X154230409Y-85483304D02*
X154230409Y-86169019D01*
X154192314Y-86245209D01*
X154116123Y-86283304D01*
X154039933Y-86283304D01*
X175449457Y-88989304D02*
X175449457Y-88189304D01*
X175258980Y-88189304D01*
X175144695Y-88227400D01*
X175068504Y-88303590D01*
X175030409Y-88379780D01*
X174992314Y-88532161D01*
X174992314Y-88646447D01*
X175030409Y-88798828D01*
X175068504Y-88875019D01*
X175144695Y-88951209D01*
X175258980Y-88989304D01*
X175449457Y-88989304D01*
X174344695Y-88951209D02*
X174420885Y-88989304D01*
X174573266Y-88989304D01*
X174649457Y-88951209D01*
X174687552Y-88875019D01*
X174687552Y-88570257D01*
X174649457Y-88494066D01*
X174573266Y-88455971D01*
X174420885Y-88455971D01*
X174344695Y-88494066D01*
X174306600Y-88570257D01*
X174306600Y-88646447D01*
X174687552Y-88722638D01*
X174039933Y-88455971D02*
X173849457Y-88989304D01*
X173658980Y-88455971D01*
X173049457Y-88951209D02*
X173125647Y-88989304D01*
X173278028Y-88989304D01*
X173354219Y-88951209D01*
X173392314Y-88875019D01*
X173392314Y-88570257D01*
X173354219Y-88494066D01*
X173278028Y-88455971D01*
X173125647Y-88455971D01*
X173049457Y-88494066D01*
X173011361Y-88570257D01*
X173011361Y-88646447D01*
X173392314Y-88722638D01*
X172554219Y-88989304D02*
X172630409Y-88951209D01*
X172668504Y-88875019D01*
X172668504Y-88189304D01*
X172135171Y-88989304D02*
X172211361Y-88951209D01*
X172249457Y-88913114D01*
X172287552Y-88836923D01*
X172287552Y-88608352D01*
X172249457Y-88532161D01*
X172211361Y-88494066D01*
X172135171Y-88455971D01*
X172020885Y-88455971D01*
X171944695Y-88494066D01*
X171906600Y-88532161D01*
X171868504Y-88608352D01*
X171868504Y-88836923D01*
X171906600Y-88913114D01*
X171944695Y-88951209D01*
X172020885Y-88989304D01*
X172135171Y-88989304D01*
X171525647Y-88455971D02*
X171525647Y-89255971D01*
X171525647Y-88494066D02*
X171449457Y-88455971D01*
X171297076Y-88455971D01*
X171220885Y-88494066D01*
X171182790Y-88532161D01*
X171144695Y-88608352D01*
X171144695Y-88836923D01*
X171182790Y-88913114D01*
X171220885Y-88951209D01*
X171297076Y-88989304D01*
X171449457Y-88989304D01*
X171525647Y-88951209D01*
X170497076Y-88951209D02*
X170573266Y-88989304D01*
X170725647Y-88989304D01*
X170801838Y-88951209D01*
X170839933Y-88875019D01*
X170839933Y-88570257D01*
X170801838Y-88494066D01*
X170725647Y-88455971D01*
X170573266Y-88455971D01*
X170497076Y-88494066D01*
X170458980Y-88570257D01*
X170458980Y-88646447D01*
X170839933Y-88722638D01*
X169773266Y-88989304D02*
X169773266Y-88189304D01*
X169773266Y-88951209D02*
X169849457Y-88989304D01*
X170001838Y-88989304D01*
X170078028Y-88951209D01*
X170116123Y-88913114D01*
X170154219Y-88836923D01*
X170154219Y-88608352D01*
X170116123Y-88532161D01*
X170078028Y-88494066D01*
X170001838Y-88455971D01*
X169849457Y-88455971D01*
X169773266Y-88494066D01*
X168782790Y-88989304D02*
X168782790Y-88189304D01*
X168782790Y-88494066D02*
X168706600Y-88455971D01*
X168554219Y-88455971D01*
X168478028Y-88494066D01*
X168439933Y-88532161D01*
X168401838Y-88608352D01*
X168401838Y-88836923D01*
X168439933Y-88913114D01*
X168478028Y-88951209D01*
X168554219Y-88989304D01*
X168706600Y-88989304D01*
X168782790Y-88951209D01*
X168135171Y-88455971D02*
X167944695Y-88989304D01*
X167754219Y-88455971D02*
X167944695Y-88989304D01*
X168020885Y-89179780D01*
X168058980Y-89217876D01*
X168135171Y-89255971D01*
X166878028Y-88760733D02*
X166497076Y-88760733D01*
X166954219Y-88989304D02*
X166687552Y-88189304D01*
X166420885Y-88989304D01*
X166154219Y-88989304D02*
X166154219Y-88455971D01*
X166154219Y-88608352D02*
X166116123Y-88532161D01*
X166078028Y-88494066D01*
X166001838Y-88455971D01*
X165925647Y-88455971D01*
X165658980Y-88455971D02*
X165658980Y-89141685D01*
X165697076Y-89217876D01*
X165773266Y-89255971D01*
X165811361Y-89255971D01*
X165658980Y-88189304D02*
X165697076Y-88227400D01*
X165658980Y-88265495D01*
X165620885Y-88227400D01*
X165658980Y-88189304D01*
X165658980Y-88265495D01*
X164935171Y-88989304D02*
X164935171Y-88570257D01*
X164973266Y-88494066D01*
X165049457Y-88455971D01*
X165201838Y-88455971D01*
X165278028Y-88494066D01*
X164935171Y-88951209D02*
X165011361Y-88989304D01*
X165201838Y-88989304D01*
X165278028Y-88951209D01*
X165316123Y-88875019D01*
X165316123Y-88798828D01*
X165278028Y-88722638D01*
X165201838Y-88684542D01*
X165011361Y-88684542D01*
X164935171Y-88646447D01*
X164554219Y-88455971D02*
X164554219Y-88989304D01*
X164554219Y-88532161D02*
X164516123Y-88494066D01*
X164439933Y-88455971D01*
X164325647Y-88455971D01*
X164249457Y-88494066D01*
X164211361Y-88570257D01*
X164211361Y-88989304D01*
X162954219Y-88570257D02*
X162839933Y-88608352D01*
X162801838Y-88646447D01*
X162763742Y-88722638D01*
X162763742Y-88836923D01*
X162801838Y-88913114D01*
X162839933Y-88951209D01*
X162916123Y-88989304D01*
X163220885Y-88989304D01*
X163220885Y-88189304D01*
X162954219Y-88189304D01*
X162878028Y-88227400D01*
X162839933Y-88265495D01*
X162801838Y-88341685D01*
X162801838Y-88417876D01*
X162839933Y-88494066D01*
X162878028Y-88532161D01*
X162954219Y-88570257D01*
X163220885Y-88570257D01*
X162078028Y-88455971D02*
X162078028Y-88989304D01*
X162420885Y-88455971D02*
X162420885Y-88875019D01*
X162382790Y-88951209D01*
X162306600Y-88989304D01*
X162192314Y-88989304D01*
X162116123Y-88951209D01*
X162078028Y-88913114D01*
X161697076Y-88989304D02*
X161697076Y-88455971D01*
X161697076Y-88189304D02*
X161735171Y-88227400D01*
X161697076Y-88265495D01*
X161658980Y-88227400D01*
X161697076Y-88189304D01*
X161697076Y-88265495D01*
X161316123Y-88455971D02*
X161316123Y-89141685D01*
X161354219Y-89217876D01*
X161430409Y-89255971D01*
X161468504Y-89255971D01*
X161316123Y-88189304D02*
X161354219Y-88227400D01*
X161316123Y-88265495D01*
X161278028Y-88227400D01*
X161316123Y-88189304D01*
X161316123Y-88265495D01*
X160973266Y-88951209D02*
X160897076Y-88989304D01*
X160744695Y-88989304D01*
X160668504Y-88951209D01*
X160630409Y-88875019D01*
X160630409Y-88836923D01*
X160668504Y-88760733D01*
X160744695Y-88722638D01*
X160858980Y-88722638D01*
X160935171Y-88684542D01*
X160973266Y-88608352D01*
X160973266Y-88570257D01*
X160935171Y-88494066D01*
X160858980Y-88455971D01*
X160744695Y-88455971D01*
X160668504Y-88494066D01*
X159982790Y-88951209D02*
X160058980Y-88989304D01*
X160211361Y-88989304D01*
X160287552Y-88951209D01*
X160325647Y-88875019D01*
X160325647Y-88570257D01*
X160287552Y-88494066D01*
X160211361Y-88455971D01*
X160058980Y-88455971D01*
X159982790Y-88494066D01*
X159944695Y-88570257D01*
X159944695Y-88646447D01*
X160325647Y-88722638D01*
X159601838Y-88989304D02*
X159601838Y-88455971D01*
X159601838Y-88608352D02*
X159563742Y-88532161D01*
X159525647Y-88494066D01*
X159449457Y-88455971D01*
X159373266Y-88455971D01*
X158763742Y-88989304D02*
X158763742Y-88189304D01*
X158763742Y-88951209D02*
X158839933Y-88989304D01*
X158992314Y-88989304D01*
X159068504Y-88951209D01*
X159106600Y-88913114D01*
X159144695Y-88836923D01*
X159144695Y-88608352D01*
X159106600Y-88532161D01*
X159068504Y-88494066D01*
X158992314Y-88455971D01*
X158839933Y-88455971D01*
X158763742Y-88494066D01*
M02*
