%TF.GenerationSoftware,KiCad,Pcbnew,(5.1.10)-1*%
%TF.CreationDate,2021-12-10T13:36:25+01:00*%
%TF.ProjectId,esp01-ws2812b-breakout,65737030-312d-4777-9332-383132622d62,rev?*%
%TF.SameCoordinates,Original*%
%TF.FileFunction,Copper,L1,Top*%
%TF.FilePolarity,Positive*%
%FSLAX46Y46*%
G04 Gerber Fmt 4.6, Leading zero omitted, Abs format (unit mm)*
G04 Created by KiCad (PCBNEW (5.1.10)-1) date 2021-12-10 13:36:25*
%MOMM*%
%LPD*%
G01*
G04 APERTURE LIST*
%TA.AperFunction,ComponentPad*%
%ADD10R,1.727200X1.727200*%
%TD*%
%TA.AperFunction,ComponentPad*%
%ADD11O,1.727200X1.727200*%
%TD*%
%TA.AperFunction,ComponentPad*%
%ADD12C,1.727200*%
%TD*%
%TA.AperFunction,ComponentPad*%
%ADD13R,1.700000X1.700000*%
%TD*%
%TA.AperFunction,ComponentPad*%
%ADD14O,1.700000X1.700000*%
%TD*%
%TA.AperFunction,SMDPad,CuDef*%
%ADD15R,2.000000X3.800000*%
%TD*%
%TA.AperFunction,SMDPad,CuDef*%
%ADD16R,2.000000X1.500000*%
%TD*%
%TA.AperFunction,ComponentPad*%
%ADD17O,1.500000X1.050000*%
%TD*%
%TA.AperFunction,ComponentPad*%
%ADD18R,1.500000X1.050000*%
%TD*%
%TA.AperFunction,SMDPad,CuDef*%
%ADD19R,0.800000X0.900000*%
%TD*%
%TA.AperFunction,ComponentPad*%
%ADD20R,1.600000X1.600000*%
%TD*%
%TA.AperFunction,ComponentPad*%
%ADD21C,1.600000*%
%TD*%
%TA.AperFunction,SMDPad,CuDef*%
%ADD22R,4.240000X3.810000*%
%TD*%
%TA.AperFunction,ViaPad*%
%ADD23C,0.800000*%
%TD*%
%TA.AperFunction,Conductor*%
%ADD24C,1.500000*%
%TD*%
%TA.AperFunction,Conductor*%
%ADD25C,0.500000*%
%TD*%
%TA.AperFunction,Conductor*%
%ADD26C,0.250000*%
%TD*%
%TA.AperFunction,Conductor*%
%ADD27C,0.254000*%
%TD*%
%TA.AperFunction,Conductor*%
%ADD28C,0.100000*%
%TD*%
G04 APERTURE END LIST*
D10*
%TO.P,U2,1*%
%TO.N,N/C*%
X167386000Y-98298000D03*
D11*
%TO.P,U2,2*%
%TO.N,GND*%
X164846000Y-98298000D03*
%TO.P,U2,3*%
%TO.N,+3V3*%
X167386000Y-95758000D03*
%TO.P,U2,4*%
%TO.N,DALLAS*%
X164846000Y-95758000D03*
%TO.P,U2,5*%
%TO.N,N/C*%
X167386000Y-93218000D03*
%TO.P,U2,6*%
%TO.N,GPIO0*%
X164846000Y-93218000D03*
%TO.P,U2,7*%
%TO.N,+3V3*%
X167386000Y-90678000D03*
%TO.P,U2,8*%
%TO.N,LED1_3V3*%
X164846000Y-90678000D03*
%TD*%
D12*
%TO.P,J2,3*%
%TO.N,GND*%
X159512000Y-83312000D03*
%TO.P,J2,2*%
%TO.N,LED1_5V*%
X164592000Y-83312000D03*
%TO.P,J2,1*%
%TO.N,+5V*%
X169672000Y-83312000D03*
%TD*%
%TO.P,J1,2*%
%TO.N,Net-(F1-Pad2)*%
X174752000Y-83312000D03*
%TO.P,J1,1*%
%TO.N,GND*%
X179832000Y-83312000D03*
%TD*%
D13*
%TO.P,J3,1*%
%TO.N,GND*%
X175590200Y-101600000D03*
D14*
%TO.P,J3,2*%
%TO.N,GPIO0*%
X178130200Y-101600000D03*
%TO.P,J3,3*%
%TO.N,+3V3*%
X180670200Y-101600000D03*
%TD*%
D15*
%TO.P,U1,4*%
%TO.N,N/C*%
X153212000Y-91211400D03*
D16*
%TO.P,U1,2*%
%TO.N,+3V3*%
X159512000Y-91211400D03*
%TO.P,U1,3*%
%TO.N,+5V*%
X159512000Y-88911400D03*
%TO.P,U1,1*%
%TO.N,GND*%
X159512000Y-93511400D03*
%TD*%
D17*
%TO.P,U3,2*%
%TO.N,DALLAS*%
X153974800Y-100406200D03*
%TO.P,U3,3*%
%TO.N,+5V*%
X153974800Y-101676200D03*
D18*
%TO.P,U3,1*%
%TO.N,GND*%
X153974800Y-99136200D03*
%TD*%
D19*
%TO.P,Q1,1*%
%TO.N,+3V3*%
X158775400Y-98171000D03*
%TO.P,Q1,3*%
%TO.N,LED1_3V3*%
X160675400Y-98171000D03*
%TO.P,Q1,2*%
%TO.N,Net-(Q1-Pad2)*%
X159725400Y-96171000D03*
%TD*%
D20*
%TO.P,C1,1*%
%TO.N,+5V*%
X174523400Y-95808800D03*
D21*
%TO.P,C1,2*%
%TO.N,GND*%
X174523400Y-97808800D03*
%TD*%
%TO.P,C2,1*%
%TO.N,+5V*%
%TA.AperFunction,SMDPad,CuDef*%
G36*
G01*
X161450000Y-87812300D02*
X162400000Y-87812300D01*
G75*
G02*
X162650000Y-88062300I0J-250000D01*
G01*
X162650000Y-88737300D01*
G75*
G02*
X162400000Y-88987300I-250000J0D01*
G01*
X161450000Y-88987300D01*
G75*
G02*
X161200000Y-88737300I0J250000D01*
G01*
X161200000Y-88062300D01*
G75*
G02*
X161450000Y-87812300I250000J0D01*
G01*
G37*
%TD.AperFunction*%
%TO.P,C2,2*%
%TO.N,GND*%
%TA.AperFunction,SMDPad,CuDef*%
G36*
G01*
X161450000Y-89887300D02*
X162400000Y-89887300D01*
G75*
G02*
X162650000Y-90137300I0J-250000D01*
G01*
X162650000Y-90812300D01*
G75*
G02*
X162400000Y-91062300I-250000J0D01*
G01*
X161450000Y-91062300D01*
G75*
G02*
X161200000Y-90812300I0J250000D01*
G01*
X161200000Y-90137300D01*
G75*
G02*
X161450000Y-89887300I250000J0D01*
G01*
G37*
%TD.AperFunction*%
%TD*%
%TO.P,C3,1*%
%TO.N,+3V3*%
%TA.AperFunction,SMDPad,CuDef*%
G36*
G01*
X162400000Y-94915300D02*
X161450000Y-94915300D01*
G75*
G02*
X161200000Y-94665300I0J250000D01*
G01*
X161200000Y-93990300D01*
G75*
G02*
X161450000Y-93740300I250000J0D01*
G01*
X162400000Y-93740300D01*
G75*
G02*
X162650000Y-93990300I0J-250000D01*
G01*
X162650000Y-94665300D01*
G75*
G02*
X162400000Y-94915300I-250000J0D01*
G01*
G37*
%TD.AperFunction*%
%TO.P,C3,2*%
%TO.N,GND*%
%TA.AperFunction,SMDPad,CuDef*%
G36*
G01*
X162400000Y-92840300D02*
X161450000Y-92840300D01*
G75*
G02*
X161200000Y-92590300I0J250000D01*
G01*
X161200000Y-91915300D01*
G75*
G02*
X161450000Y-91665300I250000J0D01*
G01*
X162400000Y-91665300D01*
G75*
G02*
X162650000Y-91915300I0J-250000D01*
G01*
X162650000Y-92590300D01*
G75*
G02*
X162400000Y-92840300I-250000J0D01*
G01*
G37*
%TD.AperFunction*%
%TD*%
%TO.P,C4,2*%
%TO.N,+3V3*%
%TA.AperFunction,SMDPad,CuDef*%
G36*
G01*
X170909000Y-95413500D02*
X169959000Y-95413500D01*
G75*
G02*
X169709000Y-95163500I0J250000D01*
G01*
X169709000Y-94488500D01*
G75*
G02*
X169959000Y-94238500I250000J0D01*
G01*
X170909000Y-94238500D01*
G75*
G02*
X171159000Y-94488500I0J-250000D01*
G01*
X171159000Y-95163500D01*
G75*
G02*
X170909000Y-95413500I-250000J0D01*
G01*
G37*
%TD.AperFunction*%
%TO.P,C4,1*%
%TO.N,GND*%
%TA.AperFunction,SMDPad,CuDef*%
G36*
G01*
X170909000Y-97488500D02*
X169959000Y-97488500D01*
G75*
G02*
X169709000Y-97238500I0J250000D01*
G01*
X169709000Y-96563500D01*
G75*
G02*
X169959000Y-96313500I250000J0D01*
G01*
X170909000Y-96313500D01*
G75*
G02*
X171159000Y-96563500I0J-250000D01*
G01*
X171159000Y-97238500D01*
G75*
G02*
X170909000Y-97488500I-250000J0D01*
G01*
G37*
%TD.AperFunction*%
%TD*%
D22*
%TO.P,F1,1*%
%TO.N,+5V*%
X173833000Y-91084400D03*
%TO.P,F1,2*%
%TO.N,Net-(F1-Pad2)*%
X180213000Y-91084400D03*
%TD*%
%TO.P,R1,1*%
%TO.N,+3V3*%
%TA.AperFunction,SMDPad,CuDef*%
G36*
G01*
X158172999Y-99390400D02*
X159073001Y-99390400D01*
G75*
G02*
X159323000Y-99640399I0J-249999D01*
G01*
X159323000Y-100340401D01*
G75*
G02*
X159073001Y-100590400I-249999J0D01*
G01*
X158172999Y-100590400D01*
G75*
G02*
X157923000Y-100340401I0J249999D01*
G01*
X157923000Y-99640399D01*
G75*
G02*
X158172999Y-99390400I249999J0D01*
G01*
G37*
%TD.AperFunction*%
%TO.P,R1,2*%
%TO.N,LED1_3V3*%
%TA.AperFunction,SMDPad,CuDef*%
G36*
G01*
X158172999Y-101390400D02*
X159073001Y-101390400D01*
G75*
G02*
X159323000Y-101640399I0J-249999D01*
G01*
X159323000Y-102340401D01*
G75*
G02*
X159073001Y-102590400I-249999J0D01*
G01*
X158172999Y-102590400D01*
G75*
G02*
X157923000Y-102340401I0J249999D01*
G01*
X157923000Y-101640399D01*
G75*
G02*
X158172999Y-101390400I249999J0D01*
G01*
G37*
%TD.AperFunction*%
%TD*%
%TO.P,R2,2*%
%TO.N,Net-(Q1-Pad2)*%
%TA.AperFunction,SMDPad,CuDef*%
G36*
G01*
X161232001Y-100581000D02*
X160331999Y-100581000D01*
G75*
G02*
X160082000Y-100331001I0J249999D01*
G01*
X160082000Y-99630999D01*
G75*
G02*
X160331999Y-99381000I249999J0D01*
G01*
X161232001Y-99381000D01*
G75*
G02*
X161482000Y-99630999I0J-249999D01*
G01*
X161482000Y-100331001D01*
G75*
G02*
X161232001Y-100581000I-249999J0D01*
G01*
G37*
%TD.AperFunction*%
%TO.P,R2,1*%
%TO.N,+5V*%
%TA.AperFunction,SMDPad,CuDef*%
G36*
G01*
X161232001Y-102581000D02*
X160331999Y-102581000D01*
G75*
G02*
X160082000Y-102331001I0J249999D01*
G01*
X160082000Y-101630999D01*
G75*
G02*
X160331999Y-101381000I249999J0D01*
G01*
X161232001Y-101381000D01*
G75*
G02*
X161482000Y-101630999I0J-249999D01*
G01*
X161482000Y-102331001D01*
G75*
G02*
X161232001Y-102581000I-249999J0D01*
G01*
G37*
%TD.AperFunction*%
%TD*%
%TO.P,R3,2*%
%TO.N,Net-(Q1-Pad2)*%
%TA.AperFunction,SMDPad,CuDef*%
G36*
G01*
X165135000Y-102329401D02*
X165135000Y-101429399D01*
G75*
G02*
X165384999Y-101179400I249999J0D01*
G01*
X166085001Y-101179400D01*
G75*
G02*
X166335000Y-101429399I0J-249999D01*
G01*
X166335000Y-102329401D01*
G75*
G02*
X166085001Y-102579400I-249999J0D01*
G01*
X165384999Y-102579400D01*
G75*
G02*
X165135000Y-102329401I0J249999D01*
G01*
G37*
%TD.AperFunction*%
%TO.P,R3,1*%
%TO.N,LED1_5V*%
%TA.AperFunction,SMDPad,CuDef*%
G36*
G01*
X163135000Y-102329401D02*
X163135000Y-101429399D01*
G75*
G02*
X163384999Y-101179400I249999J0D01*
G01*
X164085001Y-101179400D01*
G75*
G02*
X164335000Y-101429399I0J-249999D01*
G01*
X164335000Y-102329401D01*
G75*
G02*
X164085001Y-102579400I-249999J0D01*
G01*
X163384999Y-102579400D01*
G75*
G02*
X163135000Y-102329401I0J249999D01*
G01*
G37*
%TD.AperFunction*%
%TD*%
%TO.P,R5,1*%
%TO.N,GPIO0*%
%TA.AperFunction,SMDPad,CuDef*%
G36*
G01*
X172916001Y-103139800D02*
X172015999Y-103139800D01*
G75*
G02*
X171766000Y-102889801I0J249999D01*
G01*
X171766000Y-102189799D01*
G75*
G02*
X172015999Y-101939800I249999J0D01*
G01*
X172916001Y-101939800D01*
G75*
G02*
X173166000Y-102189799I0J-249999D01*
G01*
X173166000Y-102889801D01*
G75*
G02*
X172916001Y-103139800I-249999J0D01*
G01*
G37*
%TD.AperFunction*%
%TO.P,R5,2*%
%TO.N,+3V3*%
%TA.AperFunction,SMDPad,CuDef*%
G36*
G01*
X172916001Y-101139800D02*
X172015999Y-101139800D01*
G75*
G02*
X171766000Y-100889801I0J249999D01*
G01*
X171766000Y-100189799D01*
G75*
G02*
X172015999Y-99939800I249999J0D01*
G01*
X172916001Y-99939800D01*
G75*
G02*
X173166000Y-100189799I0J-249999D01*
G01*
X173166000Y-100889801D01*
G75*
G02*
X172916001Y-101139800I-249999J0D01*
G01*
G37*
%TD.AperFunction*%
%TD*%
%TO.P,R6,2*%
%TO.N,DALLAS*%
%TA.AperFunction,SMDPad,CuDef*%
G36*
G01*
X154654200Y-96919201D02*
X154654200Y-96019199D01*
G75*
G02*
X154904199Y-95769200I249999J0D01*
G01*
X155604201Y-95769200D01*
G75*
G02*
X155854200Y-96019199I0J-249999D01*
G01*
X155854200Y-96919201D01*
G75*
G02*
X155604201Y-97169200I-249999J0D01*
G01*
X154904199Y-97169200D01*
G75*
G02*
X154654200Y-96919201I0J249999D01*
G01*
G37*
%TD.AperFunction*%
%TO.P,R6,1*%
%TO.N,+5V*%
%TA.AperFunction,SMDPad,CuDef*%
G36*
G01*
X152654200Y-96919201D02*
X152654200Y-96019199D01*
G75*
G02*
X152904199Y-95769200I249999J0D01*
G01*
X153604201Y-95769200D01*
G75*
G02*
X153854200Y-96019199I0J-249999D01*
G01*
X153854200Y-96919201D01*
G75*
G02*
X153604201Y-97169200I-249999J0D01*
G01*
X152904199Y-97169200D01*
G75*
G02*
X152654200Y-96919201I0J249999D01*
G01*
G37*
%TD.AperFunction*%
%TD*%
D23*
%TO.N,LED1_3V3*%
X161899600Y-98272600D03*
X157276800Y-94183200D03*
%TO.N,LED1_5V*%
X162636200Y-100584000D03*
%TO.N,DALLAS*%
X155498800Y-95021400D03*
%TO.N,+5V*%
X154076400Y-95021400D03*
X157861000Y-88138000D03*
%TO.N,GND*%
X176911000Y-89535000D03*
X176911000Y-90424000D03*
X179832000Y-87122000D03*
X180721000Y-87122000D03*
%TO.N,LED1_5V*%
X164592000Y-80441800D03*
%TO.N,GPIO0*%
X170815000Y-98679000D03*
%TD*%
D24*
%TO.N,+5V*%
X169672000Y-85979000D02*
X173736000Y-90043000D01*
X169672000Y-83312000D02*
X169672000Y-85979000D01*
X174625000Y-90932000D02*
X173736000Y-90043000D01*
D25*
X161968000Y-88265000D02*
X161925000Y-88222000D01*
X159498000Y-88646000D02*
X159512000Y-88632000D01*
X161515000Y-88632000D02*
X161925000Y-88222000D01*
X159512000Y-88632000D02*
X161515000Y-88632000D01*
X159018000Y-88138000D02*
X159512000Y-88632000D01*
X157861000Y-88138000D02*
X159018000Y-88138000D01*
D24*
X174523400Y-90830400D02*
X173736000Y-90043000D01*
X174523400Y-95808800D02*
X174523400Y-90830400D01*
D25*
X154076400Y-95647000D02*
X153254200Y-96469200D01*
X154076400Y-95021400D02*
X154076400Y-95647000D01*
X153640928Y-101676200D02*
X153974800Y-101676200D01*
X152774790Y-100810062D02*
X153640928Y-101676200D01*
X152774790Y-96948610D02*
X152774790Y-100810062D01*
X153254200Y-96469200D02*
X152774790Y-96948610D01*
D26*
X159847590Y-102915410D02*
X160782000Y-101981000D01*
X155214010Y-102915410D02*
X159847590Y-102915410D01*
X153974800Y-101676200D02*
X155214010Y-102915410D01*
D25*
%TO.N,GND*%
X161925000Y-90297000D02*
X161925000Y-92075000D01*
X160768000Y-93232000D02*
X159512000Y-93232000D01*
X161925000Y-92075000D02*
X160768000Y-93232000D01*
X170434000Y-97787202D02*
X170434000Y-96901000D01*
X168609601Y-99611601D02*
X170434000Y-97787202D01*
X166159601Y-99611601D02*
X168609601Y-99611601D01*
X164846000Y-98298000D02*
X166159601Y-99611601D01*
X159512000Y-93511400D02*
X158941800Y-93511400D01*
X158941800Y-93511400D02*
X158763599Y-93333199D01*
X156101980Y-86722020D02*
X159512000Y-83312000D01*
X156101980Y-90351380D02*
X156101980Y-86722020D01*
X159262000Y-93511400D02*
X156101980Y-90351380D01*
X159512000Y-93511400D02*
X159262000Y-93511400D01*
%TO.N,+3V3*%
X159512000Y-90932000D02*
X159251998Y-90932000D01*
X158507998Y-90932000D02*
X159512000Y-90932000D01*
X156801990Y-89225992D02*
X158507998Y-90932000D01*
X156801990Y-87939008D02*
X156801990Y-89225992D01*
X157556508Y-87184490D02*
X156801990Y-87939008D01*
X163892490Y-87184490D02*
X157556508Y-87184490D01*
X166104002Y-88011000D02*
X164719000Y-88011000D01*
X164719000Y-88011000D02*
X163892490Y-87184490D01*
X167386000Y-89292998D02*
X166104002Y-88011000D01*
X167386000Y-90678000D02*
X167386000Y-89292998D01*
D26*
X172580801Y-100424999D02*
X172466000Y-100539800D01*
X170702002Y-94826000D02*
X170434000Y-94826000D01*
X172466000Y-96589998D02*
X170702002Y-94826000D01*
X172466000Y-100539800D02*
X172466000Y-96589998D01*
D25*
X168699601Y-94444399D02*
X167386000Y-95758000D01*
X167386000Y-91273870D02*
X168699601Y-92587471D01*
X168699601Y-92587471D02*
X168699601Y-94444399D01*
X167386000Y-90678000D02*
X167386000Y-91273870D01*
X170434000Y-94321870D02*
X168699601Y-92587471D01*
X170434000Y-94826000D02*
X170434000Y-94321870D01*
D26*
X162344399Y-94569399D02*
X161925000Y-94150000D01*
X166197399Y-94569399D02*
X162344399Y-94569399D01*
X167386000Y-95758000D02*
X166197399Y-94569399D01*
X158623000Y-98323400D02*
X158775400Y-98171000D01*
X158623000Y-99990400D02*
X158623000Y-98323400D01*
X161666399Y-94586401D02*
X161925000Y-94327800D01*
X159874997Y-94586401D02*
X161666399Y-94586401D01*
X158775400Y-95685998D02*
X159874997Y-94586401D01*
X158775400Y-98171000D02*
X158775400Y-95685998D01*
%TO.N,LED1_5V*%
X163735000Y-101682800D02*
X162636200Y-100584000D01*
X163735000Y-101879400D02*
X163735000Y-101682800D01*
X164592000Y-83312000D02*
X164592000Y-80441800D01*
%TO.N,LED1_3V3*%
X157276800Y-100644200D02*
X158623000Y-101990400D01*
X157276800Y-94183200D02*
X157276800Y-100644200D01*
X160777000Y-98272600D02*
X160675400Y-98171000D01*
X161899600Y-98272600D02*
X160777000Y-98272600D01*
%TO.N,GPIO0*%
X170815000Y-100888800D02*
X172466000Y-102539800D01*
X170815000Y-98679000D02*
X170815000Y-100888800D01*
X172701201Y-102775001D02*
X176955199Y-102775001D01*
X176955199Y-102775001D02*
X178130200Y-101600000D01*
X172466000Y-102539800D02*
X172701201Y-102775001D01*
%TO.N,DALLAS*%
X155254200Y-100126800D02*
X155254200Y-96469200D01*
X154974800Y-100406200D02*
X155254200Y-100126800D01*
X153974800Y-100406200D02*
X154974800Y-100406200D01*
X155254200Y-95266000D02*
X155498800Y-95021400D01*
X155254200Y-96469200D02*
X155254200Y-95266000D01*
D24*
%TO.N,Net-(F1-Pad2)*%
X174752000Y-84679000D02*
X180116000Y-90043000D01*
X174752000Y-83312000D02*
X174752000Y-84679000D01*
D26*
%TO.N,Net-(Q1-Pad2)*%
X159725400Y-99095600D02*
X159725400Y-96171000D01*
X160610800Y-99981000D02*
X159725400Y-99095600D01*
X160782000Y-99981000D02*
X160610800Y-99981000D01*
X161807010Y-102569180D02*
X161807010Y-101006010D01*
X162142240Y-102904410D02*
X161807010Y-102569180D01*
X164709990Y-102904410D02*
X162142240Y-102904410D01*
X161807010Y-101006010D02*
X160782000Y-99981000D01*
X165735000Y-101879400D02*
X164709990Y-102904410D01*
%TD*%
D27*
%TO.N,GND*%
X163674795Y-79951544D02*
X163596774Y-80139902D01*
X163557000Y-80339861D01*
X163557000Y-80543739D01*
X163596774Y-80743698D01*
X163674795Y-80932056D01*
X163788063Y-81101574D01*
X163832001Y-81145512D01*
X163832000Y-82017465D01*
X163636698Y-82147961D01*
X163427961Y-82356698D01*
X163263958Y-82602147D01*
X163150990Y-82874875D01*
X163093400Y-83164401D01*
X163093400Y-83459599D01*
X163150990Y-83749125D01*
X163263958Y-84021853D01*
X163427961Y-84267302D01*
X163636698Y-84476039D01*
X163882147Y-84640042D01*
X164154875Y-84753010D01*
X164444401Y-84810600D01*
X164739599Y-84810600D01*
X165029125Y-84753010D01*
X165301853Y-84640042D01*
X165547302Y-84476039D01*
X165756039Y-84267302D01*
X165920042Y-84021853D01*
X166033010Y-83749125D01*
X166090600Y-83459599D01*
X166090600Y-83164401D01*
X166033010Y-82874875D01*
X165920042Y-82602147D01*
X165756039Y-82356698D01*
X165547302Y-82147961D01*
X165352000Y-82017465D01*
X165352000Y-81145511D01*
X165395937Y-81101574D01*
X165509205Y-80932056D01*
X165587226Y-80743698D01*
X165627000Y-80543739D01*
X165627000Y-80339861D01*
X165587226Y-80139902D01*
X165509205Y-79951544D01*
X165480110Y-79908000D01*
X181598394Y-79908000D01*
X181966000Y-80275606D01*
X181966000Y-88541328D01*
X180573014Y-88541328D01*
X176381790Y-84350104D01*
X178973501Y-84350104D01*
X179052782Y-84600567D01*
X179319141Y-84727826D01*
X179605210Y-84800675D01*
X179899993Y-84816315D01*
X180192164Y-84774145D01*
X180470493Y-84675786D01*
X180611218Y-84600567D01*
X180690499Y-84350104D01*
X179832000Y-83491605D01*
X178973501Y-84350104D01*
X176381790Y-84350104D01*
X176137000Y-84105315D01*
X176137000Y-83884345D01*
X176193010Y-83749125D01*
X176250600Y-83459599D01*
X176250600Y-83379993D01*
X178327685Y-83379993D01*
X178369855Y-83672164D01*
X178468214Y-83950493D01*
X178543433Y-84091218D01*
X178793896Y-84170499D01*
X179652395Y-83312000D01*
X180011605Y-83312000D01*
X180870104Y-84170499D01*
X181120567Y-84091218D01*
X181247826Y-83824859D01*
X181320675Y-83538790D01*
X181336315Y-83244007D01*
X181294145Y-82951836D01*
X181195786Y-82673507D01*
X181120567Y-82532782D01*
X180870104Y-82453501D01*
X180011605Y-83312000D01*
X179652395Y-83312000D01*
X178793896Y-82453501D01*
X178543433Y-82532782D01*
X178416174Y-82799141D01*
X178343325Y-83085210D01*
X178327685Y-83379993D01*
X176250600Y-83379993D01*
X176250600Y-83164401D01*
X176193010Y-82874875D01*
X176080042Y-82602147D01*
X175916039Y-82356698D01*
X175833237Y-82273896D01*
X178973501Y-82273896D01*
X179832000Y-83132395D01*
X180690499Y-82273896D01*
X180611218Y-82023433D01*
X180344859Y-81896174D01*
X180058790Y-81823325D01*
X179764007Y-81807685D01*
X179471836Y-81849855D01*
X179193507Y-81948214D01*
X179052782Y-82023433D01*
X178973501Y-82273896D01*
X175833237Y-82273896D01*
X175707302Y-82147961D01*
X175461853Y-81983958D01*
X175189125Y-81870990D01*
X174899599Y-81813400D01*
X174604401Y-81813400D01*
X174314875Y-81870990D01*
X174042147Y-81983958D01*
X173796698Y-82147961D01*
X173587961Y-82356698D01*
X173423958Y-82602147D01*
X173310990Y-82874875D01*
X173253400Y-83164401D01*
X173253400Y-83459599D01*
X173310990Y-83749125D01*
X173367000Y-83884345D01*
X173367000Y-84610971D01*
X173360300Y-84679000D01*
X173367000Y-84747029D01*
X173367000Y-84747037D01*
X173387040Y-84950507D01*
X173466236Y-85211581D01*
X173591761Y-85446420D01*
X173594844Y-85452188D01*
X173724548Y-85610233D01*
X173724551Y-85610236D01*
X173767920Y-85663081D01*
X173820764Y-85706449D01*
X177454928Y-89340614D01*
X177454928Y-92989400D01*
X177467188Y-93113882D01*
X177503498Y-93233580D01*
X177562463Y-93343894D01*
X177641815Y-93440585D01*
X177738506Y-93519937D01*
X177848820Y-93578902D01*
X177968518Y-93615212D01*
X178093000Y-93627472D01*
X181966001Y-93627472D01*
X181966001Y-100866374D01*
X181823675Y-100653368D01*
X181616832Y-100446525D01*
X181373611Y-100284010D01*
X181103358Y-100172068D01*
X180816460Y-100115000D01*
X180523940Y-100115000D01*
X180237042Y-100172068D01*
X179966789Y-100284010D01*
X179723568Y-100446525D01*
X179516725Y-100653368D01*
X179400200Y-100827760D01*
X179283675Y-100653368D01*
X179076832Y-100446525D01*
X178833611Y-100284010D01*
X178563358Y-100172068D01*
X178276460Y-100115000D01*
X177983940Y-100115000D01*
X177697042Y-100172068D01*
X177426789Y-100284010D01*
X177183568Y-100446525D01*
X177051713Y-100578380D01*
X177029702Y-100505820D01*
X176970737Y-100395506D01*
X176891385Y-100298815D01*
X176794694Y-100219463D01*
X176684380Y-100160498D01*
X176564682Y-100124188D01*
X176440200Y-100111928D01*
X175875950Y-100115000D01*
X175717200Y-100273750D01*
X175717200Y-101473000D01*
X175737200Y-101473000D01*
X175737200Y-101727000D01*
X175717200Y-101727000D01*
X175717200Y-101747000D01*
X175463200Y-101747000D01*
X175463200Y-101727000D01*
X174263950Y-101727000D01*
X174105200Y-101885750D01*
X174104496Y-102015001D01*
X173786540Y-102015001D01*
X173736472Y-101849949D01*
X173654405Y-101696413D01*
X173543962Y-101561838D01*
X173517109Y-101539800D01*
X173543962Y-101517762D01*
X173654405Y-101383187D01*
X173736472Y-101229651D01*
X173787008Y-101063055D01*
X173804072Y-100889801D01*
X173804072Y-100750000D01*
X174102128Y-100750000D01*
X174105200Y-101314250D01*
X174263950Y-101473000D01*
X175463200Y-101473000D01*
X175463200Y-100273750D01*
X175304450Y-100115000D01*
X174740200Y-100111928D01*
X174615718Y-100124188D01*
X174496020Y-100160498D01*
X174385706Y-100219463D01*
X174289015Y-100298815D01*
X174209663Y-100395506D01*
X174150698Y-100505820D01*
X174114388Y-100625518D01*
X174102128Y-100750000D01*
X173804072Y-100750000D01*
X173804072Y-100189799D01*
X173787008Y-100016545D01*
X173736472Y-99849949D01*
X173654405Y-99696413D01*
X173543962Y-99561838D01*
X173409387Y-99451395D01*
X173255851Y-99369328D01*
X173226000Y-99360273D01*
X173226000Y-98801502D01*
X173710303Y-98801502D01*
X173781886Y-99045471D01*
X174037396Y-99166371D01*
X174311584Y-99235100D01*
X174593912Y-99249017D01*
X174873530Y-99207587D01*
X175139692Y-99112403D01*
X175264914Y-99045471D01*
X175336497Y-98801502D01*
X174523400Y-97988405D01*
X173710303Y-98801502D01*
X173226000Y-98801502D01*
X173226000Y-98436697D01*
X173286729Y-98550314D01*
X173530698Y-98621897D01*
X174343795Y-97808800D01*
X174329653Y-97794658D01*
X174509258Y-97615053D01*
X174523400Y-97629195D01*
X174537543Y-97615053D01*
X174717148Y-97794658D01*
X174703005Y-97808800D01*
X175516102Y-98621897D01*
X175760071Y-98550314D01*
X175880971Y-98294804D01*
X175949700Y-98020616D01*
X175963617Y-97738288D01*
X175922187Y-97458670D01*
X175827003Y-97192508D01*
X175761784Y-97070491D01*
X175774585Y-97059985D01*
X175853937Y-96963294D01*
X175912902Y-96852980D01*
X175934762Y-96780917D01*
X178198600Y-96780917D01*
X178198600Y-97122683D01*
X178265275Y-97457881D01*
X178396063Y-97773631D01*
X178585937Y-98057798D01*
X178827602Y-98299463D01*
X179111769Y-98489337D01*
X179427519Y-98620125D01*
X179762717Y-98686800D01*
X180104483Y-98686800D01*
X180439681Y-98620125D01*
X180755431Y-98489337D01*
X181039598Y-98299463D01*
X181281263Y-98057798D01*
X181471137Y-97773631D01*
X181601925Y-97457881D01*
X181668600Y-97122683D01*
X181668600Y-96780917D01*
X181601925Y-96445719D01*
X181471137Y-96129969D01*
X181281263Y-95845802D01*
X181039598Y-95604137D01*
X180755431Y-95414263D01*
X180439681Y-95283475D01*
X180104483Y-95216800D01*
X179762717Y-95216800D01*
X179427519Y-95283475D01*
X179111769Y-95414263D01*
X178827602Y-95604137D01*
X178585937Y-95845802D01*
X178396063Y-96129969D01*
X178265275Y-96445719D01*
X178198600Y-96780917D01*
X175934762Y-96780917D01*
X175949212Y-96733282D01*
X175961472Y-96608800D01*
X175961472Y-95008800D01*
X175949212Y-94884318D01*
X175912902Y-94764620D01*
X175908400Y-94756197D01*
X175908400Y-93627472D01*
X175953000Y-93627472D01*
X176077482Y-93615212D01*
X176197180Y-93578902D01*
X176307494Y-93519937D01*
X176404185Y-93440585D01*
X176483537Y-93343894D01*
X176542502Y-93233580D01*
X176578812Y-93113882D01*
X176591072Y-92989400D01*
X176591072Y-89179400D01*
X176578812Y-89054918D01*
X176542502Y-88935220D01*
X176483537Y-88824906D01*
X176404185Y-88728215D01*
X176307494Y-88648863D01*
X176197180Y-88589898D01*
X176077482Y-88553588D01*
X175953000Y-88541328D01*
X174193014Y-88541328D01*
X171057000Y-85405315D01*
X171057000Y-83884345D01*
X171113010Y-83749125D01*
X171170600Y-83459599D01*
X171170600Y-83164401D01*
X171113010Y-82874875D01*
X171000042Y-82602147D01*
X170836039Y-82356698D01*
X170627302Y-82147961D01*
X170381853Y-81983958D01*
X170109125Y-81870990D01*
X169819599Y-81813400D01*
X169524401Y-81813400D01*
X169234875Y-81870990D01*
X168962147Y-81983958D01*
X168716698Y-82147961D01*
X168507961Y-82356698D01*
X168343958Y-82602147D01*
X168230990Y-82874875D01*
X168173400Y-83164401D01*
X168173400Y-83459599D01*
X168230990Y-83749125D01*
X168287000Y-83884345D01*
X168287001Y-85910961D01*
X168280300Y-85979000D01*
X168307040Y-86250507D01*
X168386236Y-86511580D01*
X168514844Y-86752188D01*
X168644548Y-86910233D01*
X168644551Y-86910236D01*
X168687920Y-86963081D01*
X168740764Y-87006449D01*
X171074928Y-89340614D01*
X171074928Y-92989400D01*
X171087188Y-93113882D01*
X171123498Y-93233580D01*
X171182463Y-93343894D01*
X171261815Y-93440585D01*
X171358506Y-93519937D01*
X171468820Y-93578902D01*
X171588518Y-93615212D01*
X171713000Y-93627472D01*
X173138400Y-93627472D01*
X173138400Y-94756197D01*
X173133898Y-94764620D01*
X173097588Y-94884318D01*
X173085328Y-95008800D01*
X173085328Y-96146657D01*
X173029799Y-96078995D01*
X173006001Y-96049997D01*
X172977003Y-96026199D01*
X171797072Y-94846269D01*
X171797072Y-94488500D01*
X171780008Y-94315246D01*
X171729472Y-94148650D01*
X171647405Y-93995114D01*
X171536962Y-93860538D01*
X171402386Y-93750095D01*
X171248850Y-93668028D01*
X171082254Y-93617492D01*
X170970161Y-93606452D01*
X169356135Y-91992427D01*
X169328418Y-91958654D01*
X169294651Y-91930942D01*
X168725031Y-91361323D01*
X168827010Y-91115125D01*
X168884600Y-90825599D01*
X168884600Y-90530401D01*
X168827010Y-90240875D01*
X168714042Y-89968147D01*
X168550039Y-89722698D01*
X168341302Y-89513961D01*
X168271000Y-89466987D01*
X168271000Y-89336467D01*
X168275281Y-89292998D01*
X168271000Y-89249529D01*
X168271000Y-89249521D01*
X168258195Y-89119508D01*
X168255847Y-89111766D01*
X168238689Y-89055205D01*
X168207589Y-88952685D01*
X168125411Y-88798939D01*
X168014817Y-88664181D01*
X167981049Y-88636468D01*
X166760536Y-87415956D01*
X166732819Y-87382183D01*
X166598061Y-87271589D01*
X166444315Y-87189411D01*
X166277492Y-87138805D01*
X166147479Y-87126000D01*
X166147471Y-87126000D01*
X166104002Y-87121719D01*
X166060533Y-87126000D01*
X165085579Y-87126000D01*
X164549024Y-86589446D01*
X164521307Y-86555673D01*
X164386549Y-86445079D01*
X164232803Y-86362901D01*
X164065980Y-86312295D01*
X163935967Y-86299490D01*
X163935959Y-86299490D01*
X163892490Y-86295209D01*
X163849021Y-86299490D01*
X157599977Y-86299490D01*
X157556508Y-86295209D01*
X157513039Y-86299490D01*
X157513031Y-86299490D01*
X157383018Y-86312295D01*
X157216194Y-86362901D01*
X157062449Y-86445079D01*
X156961461Y-86527958D01*
X156961459Y-86527960D01*
X156927691Y-86555673D01*
X156899978Y-86589441D01*
X156206946Y-87282474D01*
X156173173Y-87310191D01*
X156062579Y-87444950D01*
X155980401Y-87598696D01*
X155929795Y-87765519D01*
X155916990Y-87895532D01*
X155916990Y-87895539D01*
X155912709Y-87939008D01*
X155916990Y-87982478D01*
X155916991Y-88620600D01*
X152968200Y-88620600D01*
X152943424Y-88623040D01*
X152919599Y-88630267D01*
X152897643Y-88642003D01*
X152878397Y-88657797D01*
X152862866Y-88673328D01*
X152298000Y-88673328D01*
X152298000Y-87154419D01*
X152301193Y-87122000D01*
X152288450Y-86992617D01*
X152250710Y-86868207D01*
X152189425Y-86753550D01*
X152106948Y-86653052D01*
X152044400Y-86601720D01*
X152044400Y-84350104D01*
X158653501Y-84350104D01*
X158732782Y-84600567D01*
X158999141Y-84727826D01*
X159285210Y-84800675D01*
X159579993Y-84816315D01*
X159872164Y-84774145D01*
X160150493Y-84675786D01*
X160291218Y-84600567D01*
X160370499Y-84350104D01*
X159512000Y-83491605D01*
X158653501Y-84350104D01*
X152044400Y-84350104D01*
X152044400Y-83379993D01*
X158007685Y-83379993D01*
X158049855Y-83672164D01*
X158148214Y-83950493D01*
X158223433Y-84091218D01*
X158473896Y-84170499D01*
X159332395Y-83312000D01*
X159691605Y-83312000D01*
X160550104Y-84170499D01*
X160800567Y-84091218D01*
X160927826Y-83824859D01*
X161000675Y-83538790D01*
X161016315Y-83244007D01*
X160974145Y-82951836D01*
X160875786Y-82673507D01*
X160800567Y-82532782D01*
X160550104Y-82453501D01*
X159691605Y-83312000D01*
X159332395Y-83312000D01*
X158473896Y-82453501D01*
X158223433Y-82532782D01*
X158096174Y-82799141D01*
X158023325Y-83085210D01*
X158007685Y-83379993D01*
X152044400Y-83379993D01*
X152044400Y-82273896D01*
X158653501Y-82273896D01*
X159512000Y-83132395D01*
X160370499Y-82273896D01*
X160291218Y-82023433D01*
X160024859Y-81896174D01*
X159738790Y-81823325D01*
X159444007Y-81807685D01*
X159151836Y-81849855D01*
X158873507Y-81948214D01*
X158732782Y-82023433D01*
X158653501Y-82273896D01*
X152044400Y-82273896D01*
X152044400Y-80503806D01*
X152640206Y-79908000D01*
X163703890Y-79908000D01*
X163674795Y-79951544D01*
%TA.AperFunction,Conductor*%
D28*
G36*
X163674795Y-79951544D02*
G01*
X163596774Y-80139902D01*
X163557000Y-80339861D01*
X163557000Y-80543739D01*
X163596774Y-80743698D01*
X163674795Y-80932056D01*
X163788063Y-81101574D01*
X163832001Y-81145512D01*
X163832000Y-82017465D01*
X163636698Y-82147961D01*
X163427961Y-82356698D01*
X163263958Y-82602147D01*
X163150990Y-82874875D01*
X163093400Y-83164401D01*
X163093400Y-83459599D01*
X163150990Y-83749125D01*
X163263958Y-84021853D01*
X163427961Y-84267302D01*
X163636698Y-84476039D01*
X163882147Y-84640042D01*
X164154875Y-84753010D01*
X164444401Y-84810600D01*
X164739599Y-84810600D01*
X165029125Y-84753010D01*
X165301853Y-84640042D01*
X165547302Y-84476039D01*
X165756039Y-84267302D01*
X165920042Y-84021853D01*
X166033010Y-83749125D01*
X166090600Y-83459599D01*
X166090600Y-83164401D01*
X166033010Y-82874875D01*
X165920042Y-82602147D01*
X165756039Y-82356698D01*
X165547302Y-82147961D01*
X165352000Y-82017465D01*
X165352000Y-81145511D01*
X165395937Y-81101574D01*
X165509205Y-80932056D01*
X165587226Y-80743698D01*
X165627000Y-80543739D01*
X165627000Y-80339861D01*
X165587226Y-80139902D01*
X165509205Y-79951544D01*
X165480110Y-79908000D01*
X181598394Y-79908000D01*
X181966000Y-80275606D01*
X181966000Y-88541328D01*
X180573014Y-88541328D01*
X176381790Y-84350104D01*
X178973501Y-84350104D01*
X179052782Y-84600567D01*
X179319141Y-84727826D01*
X179605210Y-84800675D01*
X179899993Y-84816315D01*
X180192164Y-84774145D01*
X180470493Y-84675786D01*
X180611218Y-84600567D01*
X180690499Y-84350104D01*
X179832000Y-83491605D01*
X178973501Y-84350104D01*
X176381790Y-84350104D01*
X176137000Y-84105315D01*
X176137000Y-83884345D01*
X176193010Y-83749125D01*
X176250600Y-83459599D01*
X176250600Y-83379993D01*
X178327685Y-83379993D01*
X178369855Y-83672164D01*
X178468214Y-83950493D01*
X178543433Y-84091218D01*
X178793896Y-84170499D01*
X179652395Y-83312000D01*
X180011605Y-83312000D01*
X180870104Y-84170499D01*
X181120567Y-84091218D01*
X181247826Y-83824859D01*
X181320675Y-83538790D01*
X181336315Y-83244007D01*
X181294145Y-82951836D01*
X181195786Y-82673507D01*
X181120567Y-82532782D01*
X180870104Y-82453501D01*
X180011605Y-83312000D01*
X179652395Y-83312000D01*
X178793896Y-82453501D01*
X178543433Y-82532782D01*
X178416174Y-82799141D01*
X178343325Y-83085210D01*
X178327685Y-83379993D01*
X176250600Y-83379993D01*
X176250600Y-83164401D01*
X176193010Y-82874875D01*
X176080042Y-82602147D01*
X175916039Y-82356698D01*
X175833237Y-82273896D01*
X178973501Y-82273896D01*
X179832000Y-83132395D01*
X180690499Y-82273896D01*
X180611218Y-82023433D01*
X180344859Y-81896174D01*
X180058790Y-81823325D01*
X179764007Y-81807685D01*
X179471836Y-81849855D01*
X179193507Y-81948214D01*
X179052782Y-82023433D01*
X178973501Y-82273896D01*
X175833237Y-82273896D01*
X175707302Y-82147961D01*
X175461853Y-81983958D01*
X175189125Y-81870990D01*
X174899599Y-81813400D01*
X174604401Y-81813400D01*
X174314875Y-81870990D01*
X174042147Y-81983958D01*
X173796698Y-82147961D01*
X173587961Y-82356698D01*
X173423958Y-82602147D01*
X173310990Y-82874875D01*
X173253400Y-83164401D01*
X173253400Y-83459599D01*
X173310990Y-83749125D01*
X173367000Y-83884345D01*
X173367000Y-84610971D01*
X173360300Y-84679000D01*
X173367000Y-84747029D01*
X173367000Y-84747037D01*
X173387040Y-84950507D01*
X173466236Y-85211581D01*
X173591761Y-85446420D01*
X173594844Y-85452188D01*
X173724548Y-85610233D01*
X173724551Y-85610236D01*
X173767920Y-85663081D01*
X173820764Y-85706449D01*
X177454928Y-89340614D01*
X177454928Y-92989400D01*
X177467188Y-93113882D01*
X177503498Y-93233580D01*
X177562463Y-93343894D01*
X177641815Y-93440585D01*
X177738506Y-93519937D01*
X177848820Y-93578902D01*
X177968518Y-93615212D01*
X178093000Y-93627472D01*
X181966001Y-93627472D01*
X181966001Y-100866374D01*
X181823675Y-100653368D01*
X181616832Y-100446525D01*
X181373611Y-100284010D01*
X181103358Y-100172068D01*
X180816460Y-100115000D01*
X180523940Y-100115000D01*
X180237042Y-100172068D01*
X179966789Y-100284010D01*
X179723568Y-100446525D01*
X179516725Y-100653368D01*
X179400200Y-100827760D01*
X179283675Y-100653368D01*
X179076832Y-100446525D01*
X178833611Y-100284010D01*
X178563358Y-100172068D01*
X178276460Y-100115000D01*
X177983940Y-100115000D01*
X177697042Y-100172068D01*
X177426789Y-100284010D01*
X177183568Y-100446525D01*
X177051713Y-100578380D01*
X177029702Y-100505820D01*
X176970737Y-100395506D01*
X176891385Y-100298815D01*
X176794694Y-100219463D01*
X176684380Y-100160498D01*
X176564682Y-100124188D01*
X176440200Y-100111928D01*
X175875950Y-100115000D01*
X175717200Y-100273750D01*
X175717200Y-101473000D01*
X175737200Y-101473000D01*
X175737200Y-101727000D01*
X175717200Y-101727000D01*
X175717200Y-101747000D01*
X175463200Y-101747000D01*
X175463200Y-101727000D01*
X174263950Y-101727000D01*
X174105200Y-101885750D01*
X174104496Y-102015001D01*
X173786540Y-102015001D01*
X173736472Y-101849949D01*
X173654405Y-101696413D01*
X173543962Y-101561838D01*
X173517109Y-101539800D01*
X173543962Y-101517762D01*
X173654405Y-101383187D01*
X173736472Y-101229651D01*
X173787008Y-101063055D01*
X173804072Y-100889801D01*
X173804072Y-100750000D01*
X174102128Y-100750000D01*
X174105200Y-101314250D01*
X174263950Y-101473000D01*
X175463200Y-101473000D01*
X175463200Y-100273750D01*
X175304450Y-100115000D01*
X174740200Y-100111928D01*
X174615718Y-100124188D01*
X174496020Y-100160498D01*
X174385706Y-100219463D01*
X174289015Y-100298815D01*
X174209663Y-100395506D01*
X174150698Y-100505820D01*
X174114388Y-100625518D01*
X174102128Y-100750000D01*
X173804072Y-100750000D01*
X173804072Y-100189799D01*
X173787008Y-100016545D01*
X173736472Y-99849949D01*
X173654405Y-99696413D01*
X173543962Y-99561838D01*
X173409387Y-99451395D01*
X173255851Y-99369328D01*
X173226000Y-99360273D01*
X173226000Y-98801502D01*
X173710303Y-98801502D01*
X173781886Y-99045471D01*
X174037396Y-99166371D01*
X174311584Y-99235100D01*
X174593912Y-99249017D01*
X174873530Y-99207587D01*
X175139692Y-99112403D01*
X175264914Y-99045471D01*
X175336497Y-98801502D01*
X174523400Y-97988405D01*
X173710303Y-98801502D01*
X173226000Y-98801502D01*
X173226000Y-98436697D01*
X173286729Y-98550314D01*
X173530698Y-98621897D01*
X174343795Y-97808800D01*
X174329653Y-97794658D01*
X174509258Y-97615053D01*
X174523400Y-97629195D01*
X174537543Y-97615053D01*
X174717148Y-97794658D01*
X174703005Y-97808800D01*
X175516102Y-98621897D01*
X175760071Y-98550314D01*
X175880971Y-98294804D01*
X175949700Y-98020616D01*
X175963617Y-97738288D01*
X175922187Y-97458670D01*
X175827003Y-97192508D01*
X175761784Y-97070491D01*
X175774585Y-97059985D01*
X175853937Y-96963294D01*
X175912902Y-96852980D01*
X175934762Y-96780917D01*
X178198600Y-96780917D01*
X178198600Y-97122683D01*
X178265275Y-97457881D01*
X178396063Y-97773631D01*
X178585937Y-98057798D01*
X178827602Y-98299463D01*
X179111769Y-98489337D01*
X179427519Y-98620125D01*
X179762717Y-98686800D01*
X180104483Y-98686800D01*
X180439681Y-98620125D01*
X180755431Y-98489337D01*
X181039598Y-98299463D01*
X181281263Y-98057798D01*
X181471137Y-97773631D01*
X181601925Y-97457881D01*
X181668600Y-97122683D01*
X181668600Y-96780917D01*
X181601925Y-96445719D01*
X181471137Y-96129969D01*
X181281263Y-95845802D01*
X181039598Y-95604137D01*
X180755431Y-95414263D01*
X180439681Y-95283475D01*
X180104483Y-95216800D01*
X179762717Y-95216800D01*
X179427519Y-95283475D01*
X179111769Y-95414263D01*
X178827602Y-95604137D01*
X178585937Y-95845802D01*
X178396063Y-96129969D01*
X178265275Y-96445719D01*
X178198600Y-96780917D01*
X175934762Y-96780917D01*
X175949212Y-96733282D01*
X175961472Y-96608800D01*
X175961472Y-95008800D01*
X175949212Y-94884318D01*
X175912902Y-94764620D01*
X175908400Y-94756197D01*
X175908400Y-93627472D01*
X175953000Y-93627472D01*
X176077482Y-93615212D01*
X176197180Y-93578902D01*
X176307494Y-93519937D01*
X176404185Y-93440585D01*
X176483537Y-93343894D01*
X176542502Y-93233580D01*
X176578812Y-93113882D01*
X176591072Y-92989400D01*
X176591072Y-89179400D01*
X176578812Y-89054918D01*
X176542502Y-88935220D01*
X176483537Y-88824906D01*
X176404185Y-88728215D01*
X176307494Y-88648863D01*
X176197180Y-88589898D01*
X176077482Y-88553588D01*
X175953000Y-88541328D01*
X174193014Y-88541328D01*
X171057000Y-85405315D01*
X171057000Y-83884345D01*
X171113010Y-83749125D01*
X171170600Y-83459599D01*
X171170600Y-83164401D01*
X171113010Y-82874875D01*
X171000042Y-82602147D01*
X170836039Y-82356698D01*
X170627302Y-82147961D01*
X170381853Y-81983958D01*
X170109125Y-81870990D01*
X169819599Y-81813400D01*
X169524401Y-81813400D01*
X169234875Y-81870990D01*
X168962147Y-81983958D01*
X168716698Y-82147961D01*
X168507961Y-82356698D01*
X168343958Y-82602147D01*
X168230990Y-82874875D01*
X168173400Y-83164401D01*
X168173400Y-83459599D01*
X168230990Y-83749125D01*
X168287000Y-83884345D01*
X168287001Y-85910961D01*
X168280300Y-85979000D01*
X168307040Y-86250507D01*
X168386236Y-86511580D01*
X168514844Y-86752188D01*
X168644548Y-86910233D01*
X168644551Y-86910236D01*
X168687920Y-86963081D01*
X168740764Y-87006449D01*
X171074928Y-89340614D01*
X171074928Y-92989400D01*
X171087188Y-93113882D01*
X171123498Y-93233580D01*
X171182463Y-93343894D01*
X171261815Y-93440585D01*
X171358506Y-93519937D01*
X171468820Y-93578902D01*
X171588518Y-93615212D01*
X171713000Y-93627472D01*
X173138400Y-93627472D01*
X173138400Y-94756197D01*
X173133898Y-94764620D01*
X173097588Y-94884318D01*
X173085328Y-95008800D01*
X173085328Y-96146657D01*
X173029799Y-96078995D01*
X173006001Y-96049997D01*
X172977003Y-96026199D01*
X171797072Y-94846269D01*
X171797072Y-94488500D01*
X171780008Y-94315246D01*
X171729472Y-94148650D01*
X171647405Y-93995114D01*
X171536962Y-93860538D01*
X171402386Y-93750095D01*
X171248850Y-93668028D01*
X171082254Y-93617492D01*
X170970161Y-93606452D01*
X169356135Y-91992427D01*
X169328418Y-91958654D01*
X169294651Y-91930942D01*
X168725031Y-91361323D01*
X168827010Y-91115125D01*
X168884600Y-90825599D01*
X168884600Y-90530401D01*
X168827010Y-90240875D01*
X168714042Y-89968147D01*
X168550039Y-89722698D01*
X168341302Y-89513961D01*
X168271000Y-89466987D01*
X168271000Y-89336467D01*
X168275281Y-89292998D01*
X168271000Y-89249529D01*
X168271000Y-89249521D01*
X168258195Y-89119508D01*
X168255847Y-89111766D01*
X168238689Y-89055205D01*
X168207589Y-88952685D01*
X168125411Y-88798939D01*
X168014817Y-88664181D01*
X167981049Y-88636468D01*
X166760536Y-87415956D01*
X166732819Y-87382183D01*
X166598061Y-87271589D01*
X166444315Y-87189411D01*
X166277492Y-87138805D01*
X166147479Y-87126000D01*
X166147471Y-87126000D01*
X166104002Y-87121719D01*
X166060533Y-87126000D01*
X165085579Y-87126000D01*
X164549024Y-86589446D01*
X164521307Y-86555673D01*
X164386549Y-86445079D01*
X164232803Y-86362901D01*
X164065980Y-86312295D01*
X163935967Y-86299490D01*
X163935959Y-86299490D01*
X163892490Y-86295209D01*
X163849021Y-86299490D01*
X157599977Y-86299490D01*
X157556508Y-86295209D01*
X157513039Y-86299490D01*
X157513031Y-86299490D01*
X157383018Y-86312295D01*
X157216194Y-86362901D01*
X157062449Y-86445079D01*
X156961461Y-86527958D01*
X156961459Y-86527960D01*
X156927691Y-86555673D01*
X156899978Y-86589441D01*
X156206946Y-87282474D01*
X156173173Y-87310191D01*
X156062579Y-87444950D01*
X155980401Y-87598696D01*
X155929795Y-87765519D01*
X155916990Y-87895532D01*
X155916990Y-87895539D01*
X155912709Y-87939008D01*
X155916990Y-87982478D01*
X155916991Y-88620600D01*
X152968200Y-88620600D01*
X152943424Y-88623040D01*
X152919599Y-88630267D01*
X152897643Y-88642003D01*
X152878397Y-88657797D01*
X152862866Y-88673328D01*
X152298000Y-88673328D01*
X152298000Y-87154419D01*
X152301193Y-87122000D01*
X152288450Y-86992617D01*
X152250710Y-86868207D01*
X152189425Y-86753550D01*
X152106948Y-86653052D01*
X152044400Y-86601720D01*
X152044400Y-84350104D01*
X158653501Y-84350104D01*
X158732782Y-84600567D01*
X158999141Y-84727826D01*
X159285210Y-84800675D01*
X159579993Y-84816315D01*
X159872164Y-84774145D01*
X160150493Y-84675786D01*
X160291218Y-84600567D01*
X160370499Y-84350104D01*
X159512000Y-83491605D01*
X158653501Y-84350104D01*
X152044400Y-84350104D01*
X152044400Y-83379993D01*
X158007685Y-83379993D01*
X158049855Y-83672164D01*
X158148214Y-83950493D01*
X158223433Y-84091218D01*
X158473896Y-84170499D01*
X159332395Y-83312000D01*
X159691605Y-83312000D01*
X160550104Y-84170499D01*
X160800567Y-84091218D01*
X160927826Y-83824859D01*
X161000675Y-83538790D01*
X161016315Y-83244007D01*
X160974145Y-82951836D01*
X160875786Y-82673507D01*
X160800567Y-82532782D01*
X160550104Y-82453501D01*
X159691605Y-83312000D01*
X159332395Y-83312000D01*
X158473896Y-82453501D01*
X158223433Y-82532782D01*
X158096174Y-82799141D01*
X158023325Y-83085210D01*
X158007685Y-83379993D01*
X152044400Y-83379993D01*
X152044400Y-82273896D01*
X158653501Y-82273896D01*
X159512000Y-83132395D01*
X160370499Y-82273896D01*
X160291218Y-82023433D01*
X160024859Y-81896174D01*
X159738790Y-81823325D01*
X159444007Y-81807685D01*
X159151836Y-81849855D01*
X158873507Y-81948214D01*
X158732782Y-82023433D01*
X158653501Y-82273896D01*
X152044400Y-82273896D01*
X152044400Y-80503806D01*
X152640206Y-79908000D01*
X163703890Y-79908000D01*
X163674795Y-79951544D01*
G37*
%TD.AperFunction*%
%TD*%
M02*
