M48
; DRILL file {KiCad (5.1.5)-3} date 08/10/2021 15:09:58
; FORMAT={-:-/ absolute / metric / decimal}
; #@! TF.CreationDate,2021-10-08T15:09:58+02:00
; #@! TF.GenerationSoftware,Kicad,Pcbnew,(5.1.5)-3
; #@! TF.FileFunction,Plated,1,2,PTH
FMAT,2
METRIC
T1C0.400
T2C0.750
T3C0.800
T4C1.000
T5C1.016
%
G90
G05
T1
X154.94Y-94.869
X156.845Y-93.218
X157.861Y-88.138
X157.861Y-89.027
X159.004Y-101.092
X159.766Y-96.52
X162.306Y-98.933
X162.687Y-95.377
X162.687Y-100.457
X162.941Y-96.901
X163.576Y-99.949
X164.973Y-99.949
X166.116Y-89.281
X169.037Y-91.948
X169.164Y-98.552
X170.815Y-93.345
X170.815Y-98.679
X170.815Y-100.584
X171.704Y-96.901
X176.911Y-89.535
X176.911Y-90.424
X179.832Y-87.122
X180.721Y-87.122
T2
X153.289Y-99.441
X154.559Y-99.441
X155.829Y-99.441
T3
X174.625Y-94.488
X174.625Y-96.488
T4
X175.514Y-100.33
X178.054Y-100.33
X180.594Y-100.33
T5
X174.752Y-83.312
X179.832Y-83.312
X164.846Y-90.678
X164.846Y-93.218
X164.846Y-95.758
X164.846Y-98.298
X167.386Y-90.678
X167.386Y-93.218
X167.386Y-95.758
X167.386Y-98.298
X154.432Y-83.312
X159.512Y-83.312
X164.592Y-83.312
X169.672Y-83.312
T0
M30
